<svg width="111" height="40" viewBox="0 0 111 40" fill="none" xmlns="http://www.w3.org/2000/svg">
<g clip-path="url(#clip0_92_36113)">
<path d="M12.1958 5H0V34.1667L12.1958 5Z" fill="#E6E6E6"/>
<path d="M20.7773 5H32.9573V34.1667L20.7773 5Z" fill="#E6E6E6"/>
<path d="M16.4855 15.75L24.2479 34.1669H19.1551L16.8351 28.3033H11.1543L16.4855 15.75Z" fill="#E6E6E6"/>
<path d="M52.8531 23.5474L54.2912 27.671C54.3389 27.7743 54.4104 27.8219 54.5375 27.8219H57.3024C57.4534 27.8219 57.4772 27.7504 57.4534 27.5995L51.7408 11.733C51.717 11.6059 51.6931 11.582 51.566 11.582H48.1337C48.0384 11.582 47.9828 11.6535 47.9828 11.7568C47.9351 12.5911 47.8636 12.8453 47.7603 13.0916L42.6674 27.5756C42.6436 27.7504 42.6992 27.8219 42.8422 27.8219H45.3132C45.4641 27.8219 45.5357 27.7743 45.5913 27.6233L46.9499 23.5474H52.8531ZM47.7365 20.854C48.4833 18.5976 49.4685 15.7056 49.8658 14.053H49.8896C50.3822 15.785 51.5422 19.2173 52.0666 20.854H47.7365Z" fill="#E6E6E6"/>
<path d="M64.797 28.0675C66.2827 28.0675 67.8638 27.7973 69.4688 27.1061C69.5959 27.0584 69.6197 27.0028 69.6197 26.8836C69.572 26.4387 69.5164 25.7952 69.5164 25.3026V10.3657C69.5164 10.2703 69.5164 10.2227 69.3973 10.2227H66.7039C66.6006 10.2227 66.5529 10.2703 66.5529 10.3975V15.4585C66.1318 15.4108 65.8378 15.387 65.4882 15.387C61.1422 15.387 58.4727 18.2552 58.4727 21.8385C58.4727 25.9938 61.2137 28.0675 64.797 28.0675ZM66.5529 25.3026C66.108 25.4456 65.6154 25.5012 65.1148 25.5012C63.1444 25.5012 61.5315 24.3889 61.5315 21.6875C61.5315 19.296 63.1921 17.8818 65.3929 17.8818C65.8378 17.8818 66.2271 17.9295 66.5529 18.0566V25.3026Z" fill="#E6E6E6"/>
<path d="M78.2116 15.3867C74.5012 15.3867 72.2051 18.2311 72.2051 21.7428C72.2051 24.8812 74.0325 28.0672 78.156 28.0672C81.6439 28.0672 84.091 25.5009 84.091 21.6634C84.091 18.2788 82.0173 15.3867 78.2116 15.3867ZM78.0607 17.8815C80.1582 17.8815 81.048 19.685 81.048 21.7428C81.048 24.2853 79.7371 25.5486 78.2116 25.5486C76.3286 25.5486 75.2163 23.9675 75.2163 21.6872C75.2163 19.3434 76.4001 17.8815 78.0607 17.8815Z" fill="#E6E6E6"/>
<path d="M86.876 10.2227C86.7727 10.2227 86.7012 10.2703 86.7012 10.3975V27.3047C86.7012 27.3763 86.7727 27.5034 86.876 27.5272C88.0598 27.8927 89.2992 28.0675 90.5784 28.0675C94.2411 28.0675 97.8005 25.7952 97.8005 21.2188C97.8005 17.9056 95.5282 15.387 91.9688 15.387C91.1505 15.387 90.3877 15.5141 89.7203 15.7366L89.6885 10.4213C89.6885 10.2465 89.6409 10.2227 89.4661 10.2227H86.876ZM94.7575 21.5207C94.7575 24.2617 92.8825 25.5489 90.8565 25.5489C90.4354 25.5489 90.062 25.525 89.7203 25.4217V18.2075C90.1096 18.0566 90.5784 17.9295 91.4444 17.9295C93.3989 17.9295 94.7575 19.1689 94.7575 21.5207Z" fill="#E6E6E6"/>
<path d="M107.853 22.4102C109.061 22.4102 110.054 22.3864 110.395 22.3069C110.522 22.2831 110.57 22.2354 110.594 22.1322C110.665 21.862 110.697 21.2979 110.697 20.6067C110.697 18.2549 109.283 15.3867 105.628 15.3867C101.894 15.3867 99.8203 18.4297 99.8203 21.862C99.8203 24.905 101.425 28.0672 105.922 28.0672C107.607 28.0672 108.695 27.7971 109.633 27.3521C109.728 27.3044 109.776 27.225 109.776 27.082V25.0242C109.776 24.905 109.704 24.8812 109.633 24.9289C108.695 25.3261 107.678 25.5247 106.566 25.5247C104.047 25.5247 102.903 24.1343 102.832 22.4102H107.853ZM102.832 20.2809C103.03 19.0733 103.793 17.7623 105.501 17.7623C107.384 17.7623 107.877 19.3434 107.877 20.0585C107.877 20.0823 107.877 20.1856 107.877 20.2571C107.773 20.2809 107.456 20.2809 106.518 20.2809H102.832Z" fill="#E6E6E6"/>
</g>
<defs>
<clipPath id="clip0_92_36113">
<rect width="110.833" height="40" fill="white"/>
</clipPath>
</defs>
</svg>
