<svg width="101" height="40" viewBox="0 0 101 40" fill="none" xmlns="http://www.w3.org/2000/svg">
<g clip-path="url(#clip0_92_36102)">
<path d="M31.6039 27.0245L32.8274 24.1649C34.1669 25.1569 35.9141 25.682 37.6618 25.682C38.9433 25.682 39.7586 25.1862 39.7586 24.4277C39.7294 22.3266 32.0408 23.9607 31.9824 18.6785C31.9531 15.994 34.3415 13.9222 37.7203 13.9222C39.7294 13.9222 41.7393 14.4184 43.1662 15.5566L42.0229 18.4772C40.7101 17.633 39.0886 17.0445 37.5452 17.0445C36.4968 17.0445 35.7976 17.5403 35.7976 18.1827C35.8268 20.2545 43.5743 19.1162 43.6616 24.1649C43.6616 26.9079 41.3312 28.8339 38.011 28.8339C35.5649 28.8339 33.3223 28.2504 31.6035 27.0245H31.6039ZM80.319 23.1295C80.0102 23.6782 79.561 24.1348 79.0174 24.4527C78.4739 24.7705 77.8556 24.938 77.226 24.9381C75.2636 24.9381 73.673 23.3441 73.673 21.3781C73.673 19.412 75.2636 17.818 77.226 17.818C77.8556 17.8181 78.4739 17.9856 79.0174 18.3034C79.561 18.6213 80.0102 19.078 80.319 19.6267L83.7203 17.7387C82.4463 15.4618 80.0162 13.9222 77.226 13.9222C73.1162 13.9222 69.7847 17.26 69.7847 21.3781C69.7847 25.4957 73.1162 28.8339 77.226 28.8339C80.0162 28.8339 82.4463 27.2943 83.7203 25.0174L80.319 23.1295ZM45.8687 28.542H50.1208V7.71564H45.8691L45.8687 28.542ZM85.8677 7.71564V28.542H90.1198V22.3024L95.1585 28.542H100.594L94.1861 21.1295L100.127 14.2129H94.9254L90.1198 19.9633V7.71564H85.8677ZM63.221 14.2137V15.9067C62.5222 14.7392 60.8038 13.9222 58.9981 13.9222C55.2702 13.9222 52.3288 17.2199 52.3288 21.3634C52.3288 25.507 55.2702 28.8339 58.9981 28.8339C60.8038 28.8339 62.5222 28.0169 63.221 26.8495V28.542H67.4732V14.2137H63.221ZM63.221 23.1583C62.6095 24.1795 61.328 24.9377 59.9012 24.9377C57.9384 24.9377 56.3478 23.3441 56.3478 21.3781C56.3478 19.412 57.9384 17.818 59.9012 17.818C61.328 17.818 62.6095 18.6058 63.221 19.6559V23.1583Z" fill="#E6E6E6"/>
<path d="M9.14838 7.25311C7.7704 7.25311 6.65348 8.37254 6.65348 9.75302C6.65315 10.081 6.71742 10.4058 6.84263 10.7089C6.96783 11.0121 7.15151 11.2876 7.38318 11.5197C7.61485 11.7518 7.88998 11.9361 8.19285 12.0619C8.49573 12.1877 8.82042 12.2526 9.14838 12.2529H11.6437V9.75302C11.6442 9.09063 11.3817 8.45514 10.9137 7.98633C10.4458 7.51752 9.81077 7.25378 9.14838 7.25311ZM9.14838 13.9195H2.4949C1.11692 13.9195 0 15.039 0 16.4199C0 17.8004 1.11692 18.9198 2.4949 18.9198H9.1488C10.5264 18.9198 11.6437 17.8004 11.6437 16.4199C11.6437 15.039 10.5264 13.9195 9.14838 13.9195Z" fill="#E6E6E6"/>
<path d="M24.9503 16.4199C24.9503 15.039 23.833 13.9195 22.455 13.9195C21.077 13.9195 19.9601 15.039 19.9601 16.4199V18.9198H22.455C23.1174 18.9191 23.7524 18.6554 24.2204 18.1866C24.6883 17.7177 24.9509 17.0823 24.9503 16.4199ZM18.2969 16.4199V9.75302C18.2974 9.09063 18.0348 8.45514 17.5669 7.98633C17.0989 7.51752 16.4639 7.25378 15.8015 7.25311C14.4236 7.25311 13.3066 8.37254 13.3066 9.75302V16.4194C13.3066 17.8008 14.4236 18.9202 15.8015 18.9202C16.4639 18.9195 17.0989 18.6558 17.5669 18.187C18.0348 17.7182 18.2974 17.0827 18.2969 16.4203" fill="#E6E6E6"/>
<path d="M15.8015 32.2542C16.4639 32.2535 17.0989 31.9898 17.5669 31.5209C18.0348 31.0521 18.2974 30.4166 18.2969 29.7542C18.2974 29.0919 18.0348 28.4564 17.5669 27.9876C17.0989 27.5187 16.4639 27.255 15.8015 27.2543H13.3066V29.7542C13.3066 31.1347 14.4236 32.2542 15.8015 32.2542ZM15.8015 25.5877H22.4554C23.833 25.5877 24.9503 24.4683 24.9503 23.0874C24.9509 22.425 24.6883 21.7895 24.2204 21.3207C23.7524 20.8519 23.1174 20.5882 22.455 20.5875H15.8015C14.4236 20.5875 13.3066 21.7069 13.3066 23.0874C13.3063 23.4154 13.3706 23.7402 13.4958 24.0433C13.621 24.3464 13.8047 24.6219 14.0363 24.8541C14.268 25.0862 14.5431 25.2704 14.846 25.3963C15.1489 25.5221 15.4736 25.587 15.8015 25.5873" fill="#E6E6E6"/>
<path d="M1.25886e-06 23.0874C-0.000328022 23.4154 0.0639432 23.7402 0.189145 24.0433C0.314348 24.3464 0.498029 24.6219 0.729702 24.8541C0.961374 25.0862 1.2365 25.2704 1.53937 25.3963C1.84225 25.5221 2.16694 25.587 2.4949 25.5873C3.15729 25.5867 3.79229 25.3229 4.26025 24.8541C4.7282 24.3853 4.99077 23.7498 4.99022 23.0874V20.5875H2.4949C1.11692 20.5875 1.25886e-06 21.7069 1.25886e-06 23.0874ZM6.65348 23.0874V29.7538C6.65348 31.1347 7.7704 32.2542 9.14838 32.2542C9.81077 32.2535 10.4458 31.9898 10.9137 31.5209C11.3817 31.0521 11.6442 30.4166 11.6437 29.7542V23.0874C11.644 22.7594 11.5797 22.4346 11.4545 22.1314C11.3293 21.8282 11.1456 21.5527 10.9138 21.3206C10.6821 21.0884 10.407 20.9042 10.104 20.7784C9.80111 20.6527 9.47638 20.5878 9.14838 20.5875C7.7704 20.5875 6.65348 21.7069 6.65348 23.0874Z" fill="#E6E6E6"/>
</g>
<defs>
<clipPath id="clip0_92_36102">
<rect width="100.833" height="40" fill="white"/>
</clipPath>
</defs>
</svg>
