<svg width="117" height="35" viewBox="0 0 117 35" fill="none" xmlns="http://www.w3.org/2000/svg">
<path d="M17.5003 0C7.83537 0 0 7.83515 0 17.5001C0 27.1655 7.83537 35 17.5003 35C27.1663 35 35.0009 27.1655 35.0009 17.5001C35.0009 7.83578 27.1663 0.000835901 17.5001 0.000835901L17.5003 0ZM25.5259 25.2402C25.2124 25.7543 24.5395 25.9173 24.0254 25.6017C19.9165 23.0919 14.7439 22.5235 8.65226 23.9153C8.06524 24.049 7.48011 23.6812 7.34636 23.094C7.21199 22.5068 7.57833 21.9216 8.16681 21.7879C14.8332 20.2649 20.5514 20.9206 25.1643 23.7397C25.6784 24.0553 25.8414 24.7261 25.5259 25.2402ZM27.6679 20.4751C27.2729 21.1171 26.4328 21.3198 25.7913 20.9248C21.0872 18.0334 13.9166 17.196 8.35259 18.885C7.63099 19.103 6.86885 18.6963 6.64985 17.9759C6.43251 17.2543 6.83939 16.4937 7.55973 16.2742C13.9153 14.3458 21.8165 15.2799 27.2186 18.5995C27.8601 18.9945 28.0628 19.8346 27.6679 20.4753V20.4751ZM27.8518 15.5132C22.2115 12.1631 12.9058 11.855 7.52065 13.4894C6.65591 13.7517 5.74142 13.2635 5.47937 12.3988C5.21731 11.5336 5.70506 10.6198 6.57043 10.3569C12.7522 8.48026 23.0286 8.84284 29.5223 12.6978C30.3018 13.1595 30.5568 14.164 30.0949 14.9408C29.6352 15.7186 28.6279 15.975 27.8526 15.5132H27.8518ZM47.6126 16.1551C44.5908 15.4346 44.0537 14.9289 44.0537 13.8662C44.0537 12.8623 44.9983 12.1867 46.4047 12.1867C47.7672 12.1867 49.1172 12.6997 50.5341 13.7559C50.5759 13.7878 50.6302 13.8006 50.6825 13.7922C50.7368 13.7843 50.7828 13.7552 50.8141 13.7116L52.2895 11.6318C52.3501 11.5462 52.3334 11.4281 52.2519 11.3627C50.5654 10.01 48.6679 9.35232 46.4486 9.35232C43.1865 9.35232 40.9065 11.3102 40.9065 14.1116C40.9065 17.1156 42.873 18.1793 46.271 19.0003C49.1611 19.6664 49.6501 20.2243 49.6501 21.2216C49.6501 22.327 48.6638 23.0146 47.0755 23.0146C45.3118 23.0146 43.8719 22.419 42.2628 21.0272C42.2231 20.9917 42.1688 20.9771 42.1186 20.9791C42.0643 20.9833 42.0162 21.0084 41.9828 21.0481L40.3277 23.0167C40.2587 23.1003 40.2671 23.2215 40.3465 23.2925C42.2189 24.9643 44.5218 25.8462 47.0087 25.8462C50.5236 25.8462 52.7952 23.9257 52.7952 20.952C52.8015 18.4428 51.299 17.0531 47.6189 16.1578L47.6126 16.1551ZM60.7489 13.1751C59.2254 13.1751 57.9758 13.7753 56.9434 15.0051V13.6209C56.9434 13.5116 56.8556 13.4226 56.747 13.4226H54.0407C53.9321 13.4226 53.8443 13.5116 53.8443 13.6209V29.0018C53.8443 29.1104 53.9321 29.2003 54.0407 29.2003H56.747C56.8556 29.2003 56.9434 29.1104 56.9434 29.0018V24.1472C57.9758 25.3029 59.2254 25.8692 60.7489 25.8692C63.5805 25.8692 66.4477 23.6896 66.4477 19.5228C66.4519 15.3552 63.5847 13.1749 60.751 13.1749L60.7489 13.1751ZM63.3005 19.5228C63.3005 21.6437 61.9944 23.1253 60.1219 23.1253C58.2725 23.1253 56.8765 21.5768 56.8765 19.5228C56.8765 17.4685 58.2725 15.9205 60.1219 15.9205C61.963 15.9202 63.3005 17.4349 63.3005 19.5226V19.5228ZM73.7932 13.1751C70.1466 13.1751 67.2898 15.9829 67.2898 19.5681C67.2898 23.1149 70.1277 25.8922 73.7493 25.8922C77.4085 25.8922 80.2736 23.094 80.2736 19.5228C80.2736 15.9637 77.4273 13.1755 73.7932 13.1755V13.1751ZM73.7932 23.1462C71.8539 23.1462 70.3911 21.5873 70.3911 19.5217C70.3911 17.4468 71.8037 15.9411 73.7493 15.9411C75.7012 15.9411 77.1723 17.4995 77.1723 19.5671C77.1723 21.6416 75.7513 23.1462 73.7932 23.1462ZM88.06 13.4226H85.0821V10.3786C85.0821 10.2695 84.9943 10.1805 84.8857 10.1805H82.1794C82.0708 10.1805 81.9809 10.2695 81.9809 10.3786V13.4226H80.6811C80.5724 13.4226 80.4846 13.5116 80.4846 13.6209V15.9462C80.4846 16.0552 80.5724 16.1445 80.6811 16.1445H81.9809V22.162C81.9809 24.5923 83.1909 25.8253 85.5795 25.8253C86.5491 25.8253 87.3537 25.6247 88.1123 25.1942C88.175 25.1608 88.2126 25.0939 88.2126 25.0228V22.8077C88.2126 22.7408 88.1771 22.676 88.1185 22.6405C88.06 22.6029 87.9869 22.6008 87.9263 22.6321C87.4059 22.8934 86.9023 23.0146 86.3381 23.0146C85.4708 23.0146 85.0821 22.6196 85.0821 21.7377V16.1455H88.06C88.1687 16.1455 88.2565 16.0565 88.2565 15.9472V13.6221C88.2606 13.5128 88.1729 13.4238 88.0621 13.4238L88.06 13.4226ZM98.4336 13.4345V13.0606C98.4336 11.9608 98.8558 11.4703 99.8003 11.4703C100.365 11.4703 100.818 11.5823 101.326 11.7516C101.389 11.7712 101.453 11.7614 101.503 11.724C101.556 11.6866 101.585 11.6266 101.585 11.5631V9.28315C101.585 9.19601 101.531 9.1189 101.445 9.09319C100.91 8.93374 100.225 8.77011 99.1964 8.77011C96.6991 8.77011 95.3763 10.1774 95.3763 12.8383V13.4109H94.0765C93.9678 13.4109 93.8779 13.4999 93.8779 13.609V15.9462C93.8779 16.0552 93.9678 16.1445 94.0765 16.1445H95.3763V25.4241C95.3763 25.5348 95.4662 25.6226 95.5748 25.6226H98.279C98.3897 25.6226 98.4775 25.5348 98.4775 25.4241V16.1451H101.004L104.874 25.4241C104.435 26.3979 104.003 26.5923 103.414 26.5923C102.937 26.5923 102.433 26.4501 101.921 26.168C101.873 26.143 101.815 26.1388 101.765 26.1534C101.712 26.1722 101.669 26.2098 101.648 26.26L100.73 28.2724C100.686 28.3686 100.724 28.4793 100.816 28.5295C101.773 29.0477 102.636 29.2692 103.704 29.2692C105.702 29.2692 106.807 28.3372 107.779 25.8337L112.473 13.7053C112.498 13.6443 112.489 13.5753 112.452 13.5212C112.416 13.4675 112.356 13.4351 112.291 13.4351H109.474C109.388 13.4351 109.313 13.4888 109.286 13.568L106.4 21.8088L103.24 13.5626C103.211 13.4859 103.138 13.4351 103.056 13.4351H98.4336V13.4345ZM92.4193 13.4226H89.713C89.6044 13.4226 89.5145 13.5116 89.5145 13.6209V25.4241C89.5145 25.5348 89.6044 25.6226 89.713 25.6226H92.4193C92.5279 25.6226 92.6178 25.5348 92.6178 25.4241V13.6217C92.6178 13.5124 92.53 13.4234 92.4193 13.4234V13.4226ZM91.0818 8.04789C90.0098 8.04789 89.1404 8.91556 89.1404 9.9874C89.1404 11.0599 90.0098 11.9286 91.0818 11.9286C92.1539 11.9286 93.0211 11.0599 93.0211 9.9874C93.0211 8.91577 92.1518 8.04789 91.0818 8.04789ZM114.784 17.2178C113.714 17.2178 112.88 16.3578 112.88 15.3136C112.88 14.2693 113.724 13.3996 114.794 13.3996C115.864 13.3996 116.698 14.2593 116.698 15.3027C116.698 16.347 115.854 17.2178 114.784 17.2178ZM114.794 13.5889C113.818 13.5889 113.081 14.3642 113.081 15.3136C113.081 16.2625 113.814 17.0274 114.784 17.0274C115.76 17.0274 116.498 16.2527 116.498 15.3027C116.498 14.3538 115.764 13.5889 114.794 13.5889ZM115.217 15.4985L115.756 16.2525H115.3L114.815 15.5608H114.399V16.2525H114.019V14.2539H114.909C115.375 14.2539 115.68 14.4915 115.68 14.8915C115.683 15.2191 115.492 15.4193 115.219 15.4985H115.217ZM114.895 14.5968H114.399V15.2289H114.895C115.141 15.2289 115.29 15.108 115.29 14.9126C115.29 14.7069 115.141 14.5968 114.895 14.5968Z" fill="#E6E6E6"/>
</svg>
