<svg width="80" height="37" viewBox="0 0 80 37" fill="none" xmlns="http://www.w3.org/2000/svg">
<path d="M0 28.5709L8.21203 15.7927H0.972823C0.911474 15.4246 0.885181 15.0215 0.885181 14.5745C0.885181 14.145 0.911474 13.7506 0.972823 13.3913H12.6905L12.8395 13.7857L4.56613 26.5902H12.3224C12.3838 26.9933 12.4101 27.414 12.4101 27.8347C12.4101 28.2378 12.3838 28.6235 12.3224 28.9916H0.148991L0 28.5709Z" fill="#E6E6E6"/>
<path d="M23.6984 18.7113C23.6984 17.5107 23.3916 16.6868 22.7869 16.2136C22.1822 15.7491 21.297 15.5124 20.1401 15.5124C19.4302 15.5124 18.7642 15.565 18.1507 15.6789C17.5284 15.7929 16.9324 15.9331 16.3365 16.1171C15.9509 15.4511 15.758 14.6448 15.758 13.7158C16.4504 13.4967 17.2041 13.3214 18.0367 13.1987C18.8693 13.076 19.6669 13.0146 20.4381 13.0146C22.4626 13.0146 24.0051 13.4791 25.0656 14.3994C26.1173 15.3196 26.6519 16.8008 26.6519 18.8253V28.5886C25.942 28.7463 25.0831 28.9216 24.0665 29.0881C23.0498 29.2634 22.0157 29.3423 20.964 29.3423C19.9736 29.3423 19.0709 29.2546 18.2734 29.0706C17.4758 28.8866 16.7922 28.5973 16.2313 28.1854C15.6704 27.7823 15.241 27.2652 14.9342 26.6342C14.6275 26.0031 14.4785 25.2407 14.4785 24.3555C14.4785 23.4878 14.6538 22.7166 15.0131 22.0593C15.3637 21.4019 15.8457 20.8498 16.4592 20.4204C17.0639 19.9821 17.765 19.6579 18.5626 19.4475C19.3514 19.2372 20.1839 19.1233 21.0604 19.1233C21.7089 19.1233 22.2435 19.1408 22.6554 19.1671C23.0674 19.1934 23.4179 19.2372 23.7071 19.2722V18.7113H23.6984ZM23.6984 21.6649C23.3916 21.621 23.006 21.586 22.5415 21.5422C22.077 21.4984 21.6826 21.4808 21.3583 21.4808C20.0963 21.4808 19.141 21.7175 18.4837 22.182C17.8264 22.6465 17.4933 23.3564 17.4933 24.3117C17.4933 24.9164 17.6073 25.3984 17.8264 25.7402C18.0455 26.082 18.3259 26.3449 18.659 26.529C18.992 26.713 19.3601 26.827 19.772 26.862C20.1752 26.9058 20.5608 26.9234 20.9289 26.9234C21.3934 26.9234 21.8754 26.8971 22.375 26.8445C22.8745 26.7919 23.3128 26.7218 23.6984 26.6166V21.6649Z" fill="#E6E6E6"/>
<path d="M29.9384 13.392C30.14 13.3482 30.3503 13.3219 30.5607 13.3043C30.771 13.2868 30.9901 13.278 31.218 13.278C31.4195 13.278 31.6299 13.2868 31.8578 13.3043C32.0769 13.3219 32.296 13.3569 32.4975 13.392C32.5151 13.4358 32.5414 13.5585 32.5764 13.7688C32.6027 13.9792 32.6378 14.207 32.6641 14.4524C32.6904 14.6978 32.7254 14.9257 32.7517 15.1536C32.778 15.3814 32.7955 15.5217 32.7955 15.583C32.9971 15.2587 33.2425 14.9432 33.5229 14.6365C33.8034 14.3297 34.1452 14.0581 34.5396 13.8127C34.934 13.5673 35.381 13.3745 35.8805 13.2342C36.3801 13.094 36.9322 13.0239 37.5369 13.0239C38.4484 13.0239 39.2985 13.1729 40.0785 13.4796C40.8586 13.7864 41.5246 14.2509 42.0855 14.8907C42.6465 15.5304 43.0759 16.3455 43.3914 17.3271C43.7069 18.3087 43.8647 19.4743 43.8647 20.8152C43.8647 23.4971 43.1372 25.5917 41.6912 27.0992C40.2363 28.6066 38.1855 29.3691 35.5299 29.3691C35.083 29.3691 34.6272 29.3428 34.1627 29.2814C33.6982 29.2201 33.2863 29.1412 32.9445 29.036V36.1876C32.6991 36.2314 32.445 36.2577 32.1645 36.2752C31.8928 36.2928 31.6387 36.3015 31.4195 36.3015C31.2004 36.3015 30.9463 36.2928 30.6746 36.2752C30.4029 36.2577 30.1487 36.2227 29.9296 36.1876V13.392H29.9384ZM32.9533 26.4418C33.3389 26.5821 33.7333 26.6872 34.1364 26.7486C34.5396 26.8099 35.0654 26.8362 35.7228 26.8362C36.4502 26.8362 37.125 26.7223 37.7298 26.4857C38.3345 26.249 38.8603 25.8897 39.2985 25.4077C39.7367 24.9169 40.0786 24.3034 40.3327 23.5672C40.5869 22.831 40.7096 21.9458 40.7096 20.9379C40.7096 19.3166 40.4116 18.0282 39.8156 17.0729C39.2197 16.1176 38.2381 15.6444 36.8796 15.6444C36.3713 15.6444 35.8893 15.732 35.416 15.9161C34.9515 16.1001 34.5308 16.3718 34.1715 16.7399C33.8034 17.108 33.5142 17.5637 33.2863 18.1246C33.0584 18.6855 32.9533 19.3429 32.9533 20.1141V26.4418Z" fill="#E6E6E6"/>
<path d="M47.6157 15.7576H45.635C45.5912 15.5911 45.5649 15.4071 45.5474 15.1967C45.5299 14.9864 45.5211 14.7761 45.5211 14.5745C45.5211 14.3729 45.5299 14.1626 45.5474 13.9522C45.5649 13.7419 45.6 13.5491 45.635 13.3913H50.5692V29.0003C50.3501 29.0441 50.096 29.0704 49.8243 29.088C49.5526 29.1055 49.2984 29.1143 49.0793 29.1143C48.8778 29.1143 48.6411 29.1055 48.3607 29.088C48.089 29.0704 47.8348 29.0354 47.6157 29.0003V15.7576Z" fill="#E6E6E6"/>
<path d="M57.046 21.9368C57.0898 23.637 57.528 24.8903 58.3693 25.6791C59.2107 26.4679 60.4552 26.8622 62.0941 26.8622C63.5314 26.8622 64.9074 26.6081 66.2045 26.0998C66.371 26.4065 66.5025 26.7746 66.5989 27.2128C66.7041 27.651 66.7567 28.0805 66.783 28.5099C66.1169 28.7904 65.3807 29.0095 64.5744 29.1497C63.7768 29.2899 62.8829 29.36 61.9101 29.36C60.4903 29.36 59.2721 29.1585 58.2554 28.7641C57.2388 28.3697 56.4062 27.8088 55.7489 27.0901C55.0915 26.3715 54.6095 25.5213 54.3028 24.531C53.996 23.5494 53.847 22.4714 53.847 21.2882C53.847 20.1314 53.996 19.0534 54.2852 18.0455C54.5745 17.0376 55.0302 16.17 55.6349 15.425C56.2397 14.6888 57.0109 14.0928 57.9311 13.6634C58.8514 13.2252 59.9469 13.0061 61.2002 13.0061C62.2782 13.0061 63.2159 13.1901 64.031 13.5582C64.8461 13.9263 65.5209 14.4259 66.0731 15.0657C66.6164 15.7054 67.0371 16.4679 67.3176 17.3444C67.598 18.2295 67.747 19.1848 67.747 20.219C67.747 20.4995 67.7382 20.8062 67.712 21.1129C67.6944 21.4285 67.6681 21.7001 67.6506 21.9193H57.046V21.9368ZM64.776 19.6844C64.776 19.1147 64.6971 18.5713 64.5481 18.0543C64.3991 17.5372 64.1712 17.0902 63.882 16.7046C63.584 16.3189 63.2159 16.0122 62.7602 15.7756C62.3045 15.5389 61.7611 15.425 61.1301 15.425C59.8943 15.425 58.9478 15.8019 58.2817 16.5468C57.6244 17.3005 57.2212 18.3435 57.081 19.6844H64.776Z" fill="#E6E6E6"/>
<path d="M71.0775 13.3913C71.2966 13.3475 71.5157 13.3212 71.7172 13.3037C71.9188 13.2861 72.1292 13.2774 72.357 13.2774C72.5761 13.2774 72.804 13.2861 73.0231 13.3037C73.2422 13.3212 73.4525 13.3563 73.6278 13.3913C73.6892 13.6981 73.7505 14.0925 73.8119 14.592C73.8732 15.0916 73.8995 15.5122 73.8995 15.8541C74.329 15.1617 74.8899 14.5657 75.591 14.0574C76.2921 13.5491 77.1861 13.2949 78.2816 13.2949C78.4481 13.2949 78.6146 13.3037 78.7812 13.3124C78.9564 13.3212 79.0967 13.3387 79.2194 13.3563C79.2632 13.5403 79.2895 13.7331 79.307 13.9347C79.3245 14.1363 79.3333 14.3466 79.3333 14.5745C79.3333 14.8199 79.3158 15.074 79.2895 15.337C79.2632 15.5999 79.2194 15.8541 79.1843 16.0995C79.0178 16.0556 78.8513 16.0381 78.6848 16.0381C78.5095 16.0381 78.378 16.0381 78.2728 16.0381C77.7295 16.0381 77.2036 16.117 76.7041 16.266C76.2045 16.415 75.7575 16.6867 75.3631 17.0723C74.9688 17.4579 74.6532 17.9837 74.4166 18.6586C74.18 19.3247 74.066 20.1923 74.066 21.244V29.0003C73.8469 29.0441 73.5928 29.0704 73.3211 29.088C73.0494 29.1055 72.7952 29.1143 72.5761 29.1143C72.357 29.1143 72.1029 29.1055 71.8312 29.088C71.5595 29.0704 71.2966 29.0354 71.0512 29.0003V13.3913H71.0775Z" fill="#E6E6E6"/>
<path d="M53.435 4.2068H50.4902L52.5761 2.12093C52.4096 1.89306 52.2256 1.67396 52.0327 1.47238C51.8312 1.27081 51.6208 1.08676 51.3842 0.929003L49.2983 3.01488V0.0701134C49.0266 0.0262925 48.7462 0 48.457 0H48.4482C48.159 0 47.8785 0.0262925 47.6068 0.0701134V3.01488L45.521 0.929003C45.2931 1.09552 45.074 1.27957 44.8724 1.47238C44.6708 1.67396 44.4956 1.8843 44.329 2.12093L46.4237 4.2068H43.4789C43.4789 4.2068 43.4088 4.75895 43.4088 5.04817C43.4088 5.33738 43.4351 5.61784 43.4789 5.88953H46.4237L44.3378 7.9754C44.6621 8.43114 45.0652 8.83429 45.5297 9.16733L47.6156 7.08145V10.0262C47.8873 10.07 48.1677 10.0963 48.457 10.0963H48.4657C48.7549 10.0963 49.0354 10.07 49.3071 10.0262V7.08145L51.393 9.16733C51.6208 9.00081 51.8399 8.81676 52.0415 8.62395C52.2431 8.42237 52.4271 8.21203 52.5849 7.9754L50.499 5.88953H53.4438C53.4876 5.61784 53.5139 5.33738 53.5139 5.04817V5.0394C53.5051 4.75895 53.4876 4.47849 53.435 4.2068ZM49.719 5.05693C49.719 5.43379 49.6489 5.79312 49.5262 6.12616C49.1931 6.24886 48.8338 6.31897 48.457 6.31897C48.0801 6.31897 47.7208 6.24886 47.3877 6.12616C47.265 5.79312 47.1949 5.43379 47.1949 5.05693V5.04817C47.1949 4.67131 47.265 4.31198 47.3877 3.97894C47.7208 3.85624 48.0801 3.78612 48.457 3.78612C48.8338 3.78612 49.1931 3.85624 49.5262 3.97894C49.6489 4.31198 49.719 4.67131 49.719 5.05693Z" fill="#E6E6E6"/>
</svg>
