<svg width="82" height="19" viewBox="0 0 82 19" fill="none" xmlns="http://www.w3.org/2000/svg">
<path fill-rule="evenodd" clip-rule="evenodd" d="M66.4227 5.49769C66.7346 6.03572 66.8366 6.64786 66.8703 7.33603L66.9145 8.25328V14.6672L66.9598 15.5855C67.0502 17.085 68.1561 18.1938 69.6672 18.2881L70.5806 18.3333V8.25328L70.6259 7.33603C70.6634 6.65556 70.7645 6.03187 71.0811 5.48999C71.4038 4.93419 71.867 4.47306 72.4242 4.1529C72.9815 3.83274 73.6131 3.66481 74.2558 3.66598C74.8985 3.66715 75.5295 3.83738 76.0856 4.15957C76.6417 4.48176 77.1032 4.94457 77.4239 5.50154C77.7357 6.03957 77.8329 6.66326 77.8704 7.33603L77.9157 8.25039V14.6672L77.9609 15.5855C78.0552 17.0927 79.1525 18.2015 80.6684 18.2881L81.5818 18.3333V7.33603C81.5818 5.39141 80.8095 3.52639 79.4347 2.15106C78.0599 0.775729 76.1952 0.00269318 74.2506 0.00192754C73.2097 0.000829896 72.1807 0.221859 71.2321 0.650249C70.2835 1.07864 69.4373 1.70452 68.75 2.48609C68.0623 1.70483 67.2161 1.0791 66.2676 0.650581C65.3191 0.222064 64.2902 0.000606836 63.2494 0.000964875C61.7268 0.000964875 60.3138 0.462956 59.1435 1.26085C58.4293 0.463918 56.8316 0.000964875 55.9143 0.000964875V18.3333L56.8316 18.2881C58.3658 18.187 59.4746 17.1081 59.5342 15.5855L59.5833 14.6672V8.25328L59.6286 7.33603C59.667 6.64401 59.7633 6.03572 60.0761 5.49384C60.399 4.93839 60.862 4.47737 61.4189 4.15681C61.9757 3.83626 62.6069 3.66738 63.2494 3.66705C63.8924 3.66719 64.5241 3.8364 65.081 4.15771C65.638 4.47902 66.1007 4.94113 66.4227 5.49769ZM3.66609 18.2891L4.58333 18.3333H18.3324L18.2871 17.419C18.163 15.9117 17.0956 14.8107 15.5835 14.7125L14.6663 14.6672H6.41782L17.4151 3.66609L17.3699 2.7527C17.2987 1.23005 16.186 0.129938 14.6663 0.0462012L13.749 0.00481472L0 0.000964875L0.0452366 0.91821C0.165547 2.41102 1.24834 3.53519 2.74788 3.62182L3.66609 3.66705H11.9145L0.917244 14.6682L0.962481 15.5855C1.05295 17.0965 2.14344 18.1909 3.66609 18.2881V18.2891ZM52.3156 2.68436C53.1669 3.5355 53.8423 4.54601 54.303 5.65817C54.7637 6.77033 55.0009 7.96237 55.0009 9.16619C55.0009 10.37 54.7637 11.562 54.303 12.6742C53.8423 13.7864 53.1669 14.7969 52.3156 15.648C50.5957 17.3666 48.2638 18.3319 45.8324 18.3319C43.401 18.3319 41.069 17.3666 39.3491 15.648C35.7696 12.0686 35.7696 6.26383 39.3491 2.68436C40.1996 1.83351 41.2094 1.15852 42.3209 0.697931C43.4323 0.237347 44.6235 0.000190004 45.8266 2.20966e-06C47.0316 -0.000834406 48.225 0.235905 49.3384 0.696678C50.4519 1.15745 51.4636 1.83322 52.3156 2.68532V2.68436ZM49.7217 5.28017C50.7528 6.31197 51.3319 7.71092 51.3319 9.16956C51.3319 10.6282 50.7528 12.0271 49.7217 13.0589C48.6899 14.09 47.291 14.6691 45.8324 14.6691C44.3737 14.6691 42.9748 14.09 41.943 13.0589C40.912 12.0271 40.3328 10.6282 40.3328 9.16956C40.3328 7.71092 40.912 6.31197 41.943 5.28017C42.9748 4.24915 44.3737 3.67 45.8324 3.67C47.291 3.67 48.6899 4.24915 49.7217 5.28017ZM26.5885 2.20966e-06C27.7917 0.000316406 28.983 0.237625 30.0944 0.698376C31.2058 1.15913 32.2156 1.83429 33.066 2.68532C36.6464 6.26383 36.6464 12.0695 33.066 15.648C31.3461 17.3666 29.0141 18.3319 26.5827 18.3319C24.1514 18.3319 21.8194 17.3666 20.0995 15.648C16.52 12.0686 16.52 6.26383 20.0995 2.68436C20.95 1.83351 21.9598 1.15852 23.0712 0.697931C24.1827 0.237347 25.3739 0.000190004 26.577 2.20966e-06H26.5885ZM30.4721 5.27825C31.5034 6.31009 32.0828 7.70925 32.0828 9.16811C32.0828 10.627 31.5034 12.0261 30.4721 13.058C29.4403 14.089 28.0414 14.6682 26.5827 14.6682C25.1241 14.6682 23.7252 14.089 22.6934 13.058C21.6623 12.0262 21.0832 10.6272 21.0832 9.1686C21.0832 7.70996 21.6623 6.31101 22.6934 5.27921C23.7252 4.24819 25.1241 3.66904 26.5827 3.66904C28.0414 3.66904 29.4403 4.24819 30.4721 5.27921V5.27825Z" fill="#E6E6E6"/>
</svg>
