<svg width="64" height="64" viewBox="0 0 64 64" fill="none" xmlns="http://www.w3.org/2000/svg">
<rect x="0.5" y="0.5" width="63" height="63" rx="7.5" fill="url(#paint0_linear_92_53523)"/>
<rect x="0.5" y="0.5" width="63" height="63" rx="7.5" fill="url(#paint1_linear_92_53523)" fill-opacity="0.2"/>
<rect x="0.5" y="0.5" width="63" height="63" rx="7.5" stroke="url(#paint2_linear_92_53523)"/>
<path d="M27.3764 36.1351C27.055 35.8036 26.4824 35.8036 26.1409 36.1351L24.0717 38.1943C23.7402 38.5257 23.7402 39.0982 24.0617 39.4297C24.3931 39.7612 24.9657 39.7712 25.3072 39.4398L27.3764 37.3706C27.7179 37.0391 27.7179 36.4766 27.3764 36.1351ZM25.5583 31.7556C25.5583 31.2835 25.1565 30.8817 24.6744 30.8817H21.7313C21.2592 30.8817 20.8574 31.2835 20.8574 31.7556C20.8574 32.2277 21.2592 32.6295 21.7313 32.6295H24.6744C25.1565 32.6295 25.5583 32.2277 25.5583 31.7556ZM27.2759 27.2857C27.6175 26.9543 27.6175 26.3918 27.2759 26.0503L25.2168 23.9811C24.8853 23.6496 24.3228 23.6395 23.9813 23.971C23.6498 24.3025 23.6498 24.865 23.9813 25.2065L26.0405 27.2857C26.382 27.6273 26.9445 27.6273 27.2759 27.2857ZM31.7558 25.538C32.238 25.538 32.6398 25.1362 32.6398 24.6641V21.7311C32.6398 21.259 32.238 20.8572 31.7558 20.8572C31.2838 20.8572 30.882 21.259 30.882 21.7311V24.6641C30.882 25.1362 31.2838 25.538 31.7558 25.538ZM36.1253 27.3862C36.4668 27.7277 37.0393 27.7277 37.3708 27.3862L39.44 25.317C39.7815 24.9755 39.7815 24.413 39.44 24.0715C39.1086 23.74 38.546 23.74 38.2146 24.0715L36.1253 26.1507C35.7938 26.4922 35.7938 27.0547 36.1253 27.3862ZM37.9735 31.7556C37.9735 32.2277 38.3753 32.6295 38.8474 32.6295H41.7804C42.2626 32.6295 42.6643 32.2277 42.6643 31.7556C42.6643 31.2835 42.2626 30.8817 41.7804 30.8817H38.8474C38.3753 30.8817 37.9735 31.2835 37.9735 31.7556ZM30.9624 38.7367C30.9522 39.1284 31.4043 39.2489 31.6655 38.9978L33.1922 37.461L34.9099 41.7098C34.9903 41.8907 35.1912 41.9911 35.3719 41.9107L36.3764 41.519C36.5572 41.4286 36.6275 41.2177 36.5371 41.0369L34.7291 36.8583L36.8987 36.7679C37.2703 36.7478 37.4612 36.3862 37.19 36.0949L31.6956 30.4598C31.4445 30.1987 31.0627 30.3393 31.0527 30.711L30.9624 38.7367Z" fill="#9EFF00"/>
<defs>
<linearGradient id="paint0_linear_92_53523" x1="32" y1="0" x2="32" y2="64" gradientUnits="userSpaceOnUse">
<stop stop-color="#242424"/>
<stop offset="1" stop-color="#242424" stop-opacity="0"/>
</linearGradient>
<linearGradient id="paint1_linear_92_53523" x1="148.364" y1="-63.6364" x2="6.01465e-06" y2="64" gradientUnits="userSpaceOnUse">
<stop offset="0.224072" stop-color="#9EFF00"/>
<stop offset="0.687143" stop-color="#9EFF00" stop-opacity="0"/>
</linearGradient>
<linearGradient id="paint2_linear_92_53523" x1="32" y1="0" x2="32" y2="64" gradientUnits="userSpaceOnUse">
<stop stop-color="#2E2E2E"/>
<stop offset="1" stop-color="#2E2E2E" stop-opacity="0"/>
</linearGradient>
</defs>
</svg>
