<svg width="64" height="64" viewBox="0 0 64 64" fill="none" xmlns="http://www.w3.org/2000/svg">
<rect x="0.5" y="0.5" width="63" height="63" rx="7.5" fill="url(#paint0_linear_92_53414)"/>
<rect x="0.5" y="0.5" width="63" height="63" rx="7.5" fill="url(#paint1_linear_92_53414)" fill-opacity="0.2"/>
<rect x="0.5" y="0.5" width="63" height="63" rx="7.5" stroke="url(#paint2_linear_92_53414)"/>
<path d="M22.5713 27.9955C22.5713 28.8795 23.5155 29.1005 24.078 28.5279L28.5278 24.0781C29.1104 23.5056 28.8793 22.5714 27.9954 22.5714H23.4854C22.9229 22.5714 22.5713 22.9531 22.5713 23.4955V27.9955ZM25.1628 26.4286L37.8894 39.1652L39.1651 37.9096L26.4385 25.163L25.1628 26.4286ZM41.7666 36.3426C41.7666 35.4486 40.8224 35.2377 40.2499 35.8002L35.8001 40.25C35.2275 40.8326 35.4586 41.7667 36.3425 41.7667H40.8525C41.4151 41.7667 41.7666 41.375 41.7666 40.8426V36.3426ZM41.7666 27.9955V23.4955C41.7666 22.9531 41.4151 22.5714 40.8525 22.5714H36.3425C35.4586 22.5714 35.2275 23.5056 35.8001 24.0781L40.2499 28.5279C40.8224 29.1005 41.7666 28.8795 41.7666 27.9955ZM26.4385 39.1652L39.1751 26.4286L37.8994 25.163L25.1628 37.8996L26.4385 39.1652ZM22.5713 36.3426V40.8426C22.5713 41.375 22.9229 41.7667 23.4854 41.7667H27.9954C28.8793 41.7667 29.1104 40.8326 28.5278 40.25L24.078 35.8002C23.5155 35.2377 22.5713 35.4486 22.5713 36.3426Z" fill="#9EFF00"/>
<defs>
<linearGradient id="paint0_linear_92_53414" x1="32" y1="0" x2="32" y2="64" gradientUnits="userSpaceOnUse">
<stop stop-color="#242424"/>
<stop offset="1" stop-color="#242424" stop-opacity="0"/>
</linearGradient>
<linearGradient id="paint1_linear_92_53414" x1="148.364" y1="-63.6364" x2="6.01465e-06" y2="64" gradientUnits="userSpaceOnUse">
<stop offset="0.224072" stop-color="#9EFF00"/>
<stop offset="0.687143" stop-color="#9EFF00" stop-opacity="0"/>
</linearGradient>
<linearGradient id="paint2_linear_92_53414" x1="32" y1="0" x2="32" y2="64" gradientUnits="userSpaceOnUse">
<stop stop-color="#2E2E2E"/>
<stop offset="1" stop-color="#2E2E2E" stop-opacity="0"/>
</linearGradient>
</defs>
</svg>
