<svg width="64" height="64" viewBox="0 0 64 64" fill="none" xmlns="http://www.w3.org/2000/svg">
<rect x="0.5" y="0.5" width="63" height="63" rx="7.5" fill="url(#paint0_linear_92_53423)"/>
<rect x="0.5" y="0.5" width="63" height="63" rx="7.5" fill="url(#paint1_linear_92_53423)" fill-opacity="0.2"/>
<rect x="0.5" y="0.5" width="63" height="63" rx="7.5" stroke="url(#paint2_linear_92_53423)"/>
<g clip-path="url(#clip0_92_53423)">
<path d="M24.2752 37.9196L25.0889 39.3058L32.2507 35.7098L39.4125 39.3058L40.2262 37.9196L33.0643 34.3236V25.846H31.4472V34.3236L24.2752 37.9196ZM21.734 39.356C21.734 39.7679 21.9047 40.0692 22.2663 40.2701L24.2752 41.4453C24.5364 41.606 24.7172 41.6362 25.0688 41.4353L27.0275 40.3002C27.3891 40.0993 27.4594 39.9286 27.4494 39.5971L27.4594 37.2667C27.4594 36.865 27.2786 36.5736 26.9371 36.3728L24.9181 35.1976C24.6569 35.0569 24.436 35.0067 24.0944 35.1976L22.1056 36.3527C21.7641 36.5436 21.7139 36.7445 21.7139 37.0257L21.734 39.356ZM36.9918 39.6072C36.9817 39.9386 37.052 40.1094 37.4136 40.3103L39.3724 41.4453C39.7239 41.6462 39.9048 41.6161 40.1658 41.4553L42.1748 40.2802C42.5364 40.0793 42.7072 39.7779 42.7072 39.3661L42.7272 37.0357C42.7272 36.7545 42.677 36.5536 42.3355 36.3627L40.3467 35.2076C40.0051 35.0167 39.7842 35.067 39.523 35.2076L37.5041 36.3828C37.1625 36.5838 36.9817 36.875 36.9817 37.2768L36.9918 39.6072ZM29.6893 27.5636L31.7184 28.7288C32.0598 28.9197 32.3913 28.9197 32.7329 28.7288L34.7619 27.5636C35.0431 27.4029 35.1636 27.2522 35.1636 26.8404V24.5703C35.1636 24.1685 35.0431 24.0279 34.782 23.8772L32.7529 22.7221C32.3913 22.5212 32.0498 22.5212 31.6982 22.7221L29.6692 23.8772C29.4181 24.0179 29.2775 24.1685 29.2775 24.5703V26.8404C29.2775 27.2522 29.4282 27.413 29.6893 27.5636Z" fill="#9EFF00"/>
</g>
<defs>
<linearGradient id="paint0_linear_92_53423" x1="32" y1="0" x2="32" y2="64" gradientUnits="userSpaceOnUse">
<stop stop-color="#242424"/>
<stop offset="1" stop-color="#242424" stop-opacity="0"/>
</linearGradient>
<linearGradient id="paint1_linear_92_53423" x1="148.364" y1="-63.6364" x2="6.01465e-06" y2="64" gradientUnits="userSpaceOnUse">
<stop offset="0.224072" stop-color="#9EFF00"/>
<stop offset="0.687143" stop-color="#9EFF00" stop-opacity="0"/>
</linearGradient>
<linearGradient id="paint2_linear_92_53423" x1="32" y1="0" x2="32" y2="64" gradientUnits="userSpaceOnUse">
<stop stop-color="#2E2E2E"/>
<stop offset="1" stop-color="#2E2E2E" stop-opacity="0"/>
</linearGradient>
<clipPath id="clip0_92_53423">
<rect width="21.0134" height="19.0547" fill="white" transform="translate(21.7139 22.5714)"/>
</clipPath>
</defs>
</svg>
