<svg width="64" height="64" viewBox="0 0 64 64" fill="none" xmlns="http://www.w3.org/2000/svg">
<rect x="0.5" y="0.5" width="63" height="63" rx="7.5" fill="url(#paint0_linear_92_53670)"/>
<rect x="0.5" y="0.5" width="63" height="63" rx="7.5" fill="url(#paint1_linear_92_53670)" fill-opacity="0.2"/>
<rect x="0.5" y="0.5" width="63" height="63" rx="7.5" stroke="url(#paint2_linear_92_53670)"/>
<path d="M21.2354 42.7446C22.8928 44.402 25.3537 44.4622 26.9809 42.5236C28.1763 41.0872 31.1997 36.2156 33.7912 33.624C35.5189 31.8963 37.4273 32.8104 39.3459 32.027L37.6383 25.7993C37.4273 25.0258 37.7387 24.383 38.6327 24.1419L42.3995 23.1374C42.2789 22.7859 41.9475 22.3037 41.5356 21.8819C39.2153 19.5013 35.3783 19.4711 33.0881 21.6408C29.7432 24.8249 32.2845 28.1899 30.0847 30.3897C27.3124 33.152 23.4954 35.1609 21.4564 36.989C19.5479 38.6866 19.5579 41.0671 21.2354 42.7446ZM24.078 41.1375C23.395 41.1375 22.8325 40.5849 22.8325 39.902C22.8325 39.2189 23.395 38.6564 24.078 38.6564C24.7611 38.6564 25.3135 39.2189 25.3135 39.902C25.3135 40.5849 24.7611 41.1375 24.078 41.1375ZM33.52 27.7178C33.299 27.7781 33.1082 27.6676 33.0378 27.4265C32.9776 27.2457 33.0981 27.0247 33.309 26.9644L35.6595 26.3316C35.8504 26.2814 36.0713 26.4019 36.1216 26.6129C36.1919 26.8439 36.0613 27.0448 35.8504 27.1051L33.52 27.7178ZM33.8213 28.9131C33.6004 28.9734 33.4095 28.8629 33.3292 28.6218C33.2689 28.441 33.3995 28.22 33.6104 28.1698L35.9508 27.5269C36.1416 27.4868 36.3626 27.5973 36.4229 27.8082C36.4932 28.0392 36.3526 28.2401 36.1416 28.3004L33.8213 28.9131ZM34.1126 30.1084C33.9017 30.1687 33.6807 30.0582 33.6406 29.8171C33.5903 29.6163 33.7008 29.4254 33.9218 29.3651L36.2521 28.7423C36.4731 28.672 36.684 28.8026 36.7242 29.0035C36.7745 29.2044 36.6539 29.4254 36.4631 29.4756L34.1126 30.1084ZM40.4508 31.5448C40.8425 31.3137 41.2443 31.0125 41.6561 30.6207C42.9218 29.4756 43.5747 27.7479 43.3135 26.5225L40.27 27.3562C39.9285 27.4466 39.6371 27.4667 39.3258 27.4164L40.4508 31.5448Z" fill="#9EFF00"/>
<defs>
<linearGradient id="paint0_linear_92_53670" x1="32" y1="0" x2="32" y2="64" gradientUnits="userSpaceOnUse">
<stop stop-color="#242424"/>
<stop offset="1" stop-color="#242424" stop-opacity="0"/>
</linearGradient>
<linearGradient id="paint1_linear_92_53670" x1="148.364" y1="-63.6364" x2="6.01465e-06" y2="64" gradientUnits="userSpaceOnUse">
<stop offset="0.224072" stop-color="#9EFF00"/>
<stop offset="0.687143" stop-color="#9EFF00" stop-opacity="0"/>
</linearGradient>
<linearGradient id="paint2_linear_92_53670" x1="32" y1="0" x2="32" y2="64" gradientUnits="userSpaceOnUse">
<stop stop-color="#2E2E2E"/>
<stop offset="1" stop-color="#2E2E2E" stop-opacity="0"/>
</linearGradient>
</defs>
</svg>
