<svg width="70" height="70" viewBox="0 0 70 70" fill="none" xmlns="http://www.w3.org/2000/svg">
<rect x="0.5" y="0.5" width="69" height="69" rx="7.5" fill="url(#paint0_linear_92_36212)"/>
<rect x="0.5" y="0.5" width="69" height="69" rx="7.5" fill="url(#paint1_linear_92_36212)" fill-opacity="0.2"/>
<rect x="0.5" y="0.5" width="69" height="69" rx="7.5" stroke="url(#paint2_linear_92_36212)"/>
<path d="M26.6281 40.8667L26.935 42.0942C27.3237 43.69 28.1727 44.5084 29.8605 44.5084H40.8774C42.5755 44.5084 43.4143 43.7105 43.8132 42.0942L44.1201 40.8667H26.6281ZM26.2905 39.4653H44.4678L46.3909 31.5888L45.5521 31.1081L40.8365 34.5451C40.4887 34.7906 40.2534 34.6985 40.059 34.4224L35.6196 27.712L35.1286 27.6915L30.6482 34.453C30.4743 34.719 30.2697 34.8008 29.9219 34.5553L25.2983 31.1797L24.3163 31.4354L26.2905 39.4653ZM24.6948 33.6347C26.045 33.6347 27.1293 32.5402 27.1293 31.1797C27.1293 29.8499 26.045 28.7451 24.6948 28.7451C23.3445 28.7451 22.25 29.8397 22.25 31.1797C22.25 32.5402 23.3548 33.6347 24.6948 33.6347ZM35.3741 29.3793C36.7141 29.3793 37.8086 28.2848 37.8086 26.9346C37.8086 25.6048 36.7141 24.5 35.3741 24.5C34.0136 24.5 32.9293 25.5945 32.9293 26.9346C32.9293 28.2848 34.0238 29.3793 35.3741 29.3793ZM46.0431 33.6347C47.3832 33.6347 48.4879 32.5402 48.4879 31.1797C48.4879 29.8397 47.3934 28.7451 46.0431 28.7451C44.7032 28.7451 43.6086 29.8499 43.6086 31.1797C43.6086 32.5402 44.7032 33.6347 46.0431 33.6347Z" fill="#9EFF00"/>
<defs>
<linearGradient id="paint0_linear_92_36212" x1="35" y1="0" x2="35" y2="70" gradientUnits="userSpaceOnUse">
<stop stop-color="#242424"/>
<stop offset="1" stop-color="#242424" stop-opacity="0"/>
</linearGradient>
<linearGradient id="paint1_linear_92_36212" x1="162.273" y1="-69.6023" x2="6.57852e-06" y2="70" gradientUnits="userSpaceOnUse">
<stop offset="0.224072" stop-color="#9EFF00"/>
<stop offset="0.687143" stop-color="#9EFF00" stop-opacity="0"/>
</linearGradient>
<linearGradient id="paint2_linear_92_36212" x1="35" y1="0" x2="35" y2="70" gradientUnits="userSpaceOnUse">
<stop stop-color="#2E2E2E"/>
<stop offset="1" stop-color="#2E2E2E" stop-opacity="0"/>
</linearGradient>
</defs>
</svg>
