<svg width="64" height="64" viewBox="0 0 64 64" fill="none" xmlns="http://www.w3.org/2000/svg">
<rect x="0.5" y="0.5" width="63" height="63" rx="7.5" fill="url(#paint0_linear_92_53631)"/>
<rect x="0.5" y="0.5" width="63" height="63" rx="7.5" fill="url(#paint1_linear_92_53631)" fill-opacity="0.2"/>
<rect x="0.5" y="0.5" width="63" height="63" rx="7.5" stroke="url(#paint2_linear_92_53631)"/>
<g clip-path="url(#clip0_92_53631)">
<path d="M28.4813 41.6831C28.6621 41.6831 28.7927 41.5525 28.8228 41.3617C29.1443 38.6798 29.2748 38.6094 32.007 38.1675C32.2179 38.1273 32.3484 38.0268 32.3484 37.826C32.3484 37.6351 32.2179 37.5146 32.0472 37.4844C29.2949 36.9622 29.1443 36.9722 28.8228 34.2903C28.7927 34.0994 28.6621 33.9688 28.4813 33.9688C28.2905 33.9688 28.1599 34.0994 28.1398 34.2802C27.7882 37.0023 27.6978 37.0927 24.9155 37.4844C24.7447 37.5046 24.6141 37.6351 24.6141 37.826C24.6141 38.0168 24.7447 38.1273 24.9155 38.1675C27.6978 38.6998 27.7782 38.6998 28.1398 41.3818C28.1599 41.5525 28.2905 41.6831 28.4813 41.6831ZM23.7101 32.9342C23.8507 32.9342 23.9311 32.8338 23.9612 32.7032C24.3027 30.7948 24.3128 30.6742 26.3318 30.3327C26.4623 30.3025 26.5628 30.2222 26.5628 30.0815C26.5628 29.9409 26.4623 29.8505 26.3318 29.8304C24.3128 29.4789 24.3027 29.3583 23.9612 27.4499C23.9311 27.3193 23.8507 27.2289 23.7101 27.2289C23.5695 27.2289 23.4891 27.3193 23.459 27.4499C23.1175 29.3583 23.1074 29.4789 21.0884 29.8304C20.9579 29.8505 20.8574 29.9409 20.8574 30.0815C20.8574 30.2222 20.9579 30.3025 21.0884 30.3327C23.1074 30.6742 23.1175 30.7948 23.459 32.7032C23.4891 32.8338 23.5695 32.9342 23.7101 32.9342ZM29.2146 26.5056C29.3351 26.5056 29.3954 26.4353 29.4155 26.3249C29.757 24.7177 29.7369 24.6574 31.4244 24.3159C31.5349 24.2958 31.6152 24.2255 31.6152 24.115C31.6152 23.9945 31.5349 23.9242 31.4244 23.9041C29.7369 23.5626 29.757 23.5023 29.4155 21.9052C29.3954 21.7947 29.3351 21.7144 29.2146 21.7144C29.094 21.7144 29.0338 21.7947 29.0137 21.9052C28.6722 23.5023 28.6922 23.5626 27.0047 23.9041C26.8943 23.9242 26.8139 23.9945 26.8139 24.115C26.8139 24.2255 26.8943 24.2958 27.0047 24.3159C28.6922 24.6574 28.6722 24.7177 29.0137 26.3249C29.0338 26.4353 29.094 26.5056 29.2146 26.5056ZM37.5114 30.0514C37.6521 30.0514 37.7324 29.961 37.7626 29.8304C38.1041 27.9219 38.1141 27.8014 40.1331 27.4499C40.2737 27.4298 40.3641 27.3394 40.3641 27.1987C40.3641 27.0581 40.2737 26.9777 40.1331 26.9476C38.1141 26.6061 38.1041 26.4856 37.7626 24.5771C37.7324 24.4465 37.6521 24.346 37.5114 24.346C37.3708 24.346 37.2905 24.4465 37.2603 24.5771C36.9188 26.4856 36.9088 26.6061 34.8898 26.9476C34.7592 26.9777 34.6588 27.0581 34.6588 27.1987C34.6588 27.3394 34.7592 27.4298 34.8898 27.4499C36.9088 27.8014 36.9188 27.9219 37.2603 29.8304C37.2905 29.961 37.3708 30.0514 37.5114 30.0514ZM40.8664 41.5224C41.2882 41.9543 42.0114 41.9543 42.4132 41.5224C42.825 41.0805 42.825 40.3974 42.4132 39.9755L32.8608 30.3929C32.4389 29.9711 31.7157 29.9711 31.3139 30.3929C30.892 30.8349 30.9021 31.528 31.3139 31.9498L40.8664 41.5224ZM35.0203 34.6217L32.0772 31.6686C31.8965 31.4878 31.8362 31.2869 32.017 31.1162C32.1677 30.9554 32.3786 30.9956 32.5695 31.1865L35.5226 34.1396L35.0203 34.6217Z" fill="#9EFF00"/>
</g>
<defs>
<linearGradient id="paint0_linear_92_53631" x1="32" y1="0" x2="32" y2="64" gradientUnits="userSpaceOnUse">
<stop stop-color="#242424"/>
<stop offset="1" stop-color="#242424" stop-opacity="0"/>
</linearGradient>
<linearGradient id="paint1_linear_92_53631" x1="148.364" y1="-63.6364" x2="6.01465e-06" y2="64" gradientUnits="userSpaceOnUse">
<stop offset="0.224072" stop-color="#9EFF00"/>
<stop offset="0.687143" stop-color="#9EFF00" stop-opacity="0"/>
</linearGradient>
<linearGradient id="paint2_linear_92_53631" x1="32" y1="0" x2="32" y2="64" gradientUnits="userSpaceOnUse">
<stop stop-color="#2E2E2E"/>
<stop offset="1" stop-color="#2E2E2E" stop-opacity="0"/>
</linearGradient>
<clipPath id="clip0_92_53631">
<rect width="21.8647" height="20.1797" fill="white" transform="translate(20.8574 21.7144)"/>
</clipPath>
</defs>
</svg>
