<svg width="64" height="64" viewBox="0 0 64 64" fill="none" xmlns="http://www.w3.org/2000/svg">
<rect x="0.5" y="0.5" width="63" height="63" rx="7.5" fill="url(#paint0_linear_92_53487)"/>
<rect x="0.5" y="0.5" width="63" height="63" rx="7.5" fill="url(#paint1_linear_92_53487)" fill-opacity="0.2"/>
<rect x="0.5" y="0.5" width="63" height="63" rx="7.5" stroke="url(#paint2_linear_92_53487)"/>
<path d="M35.6292 31.1C36.1935 31.1 36.6217 30.5806 36.3939 30.0644C35.6497 28.3775 33.9624 27.2 32.0002 27.2C31.8247 27.2 31.6514 27.2094 31.4808 27.2278C30.9193 27.2882 30.6832 27.9189 30.9655 28.4079L32.26 30.65C32.4208 30.9285 32.7179 31.1 33.0394 31.1L35.6292 31.1Z" fill="#9EFF00"/>
<path d="M29.4076 29.3094C29.1251 28.8202 28.4605 28.7093 28.1265 29.1649C27.5441 29.9593 27.2002 30.9395 27.2002 32C27.2002 33.0606 27.5441 34.0408 28.1266 34.8352C28.4606 35.2907 29.1252 35.1798 29.4076 34.6907L30.7012 32.4501C30.862 32.1716 30.862 31.8285 30.7012 31.5501L29.4076 29.3094Z" fill="#9EFF00"/>
<path d="M30.9656 35.5921C30.6833 36.0812 30.9194 36.7118 31.4809 36.7722C31.6515 36.7906 31.8247 36.8 32.0002 36.8C33.9624 36.8 35.6497 35.6226 36.3939 33.9356C36.6217 33.4194 36.1935 32.9 35.6292 32.9H33.0395C32.718 32.9 32.4209 33.0715 32.2601 33.35L30.9656 35.5921Z" fill="#9EFF00"/>
<path fill-rule="evenodd" clip-rule="evenodd" d="M36.9556 25.2167L37.7295 23.8763C37.978 23.4459 37.8305 22.8955 37.4001 22.6469C36.9696 22.3984 36.4192 22.5459 36.1706 22.9763L35.3975 24.3154C34.62 23.9711 33.7804 23.7414 32.9002 23.6477V22.1C32.9002 21.603 32.4973 21.2 32.0002 21.2C31.5031 21.2 31.1002 21.603 31.1002 22.1V23.6477C30.22 23.7414 29.3804 23.9711 28.6028 24.3154L27.8297 22.9764C27.5812 22.5459 27.0308 22.3984 26.6003 22.6469C26.1699 22.8955 26.0224 23.4459 26.2709 23.8764L27.0447 25.2167C26.3456 25.7283 25.7285 26.3454 25.2169 27.0446L23.8763 26.2706C23.4458 26.022 22.8954 26.1695 22.6469 26.6C22.3983 27.0305 22.5458 27.5809 22.9763 27.8294L24.3156 28.6027C23.9713 29.3802 23.7416 30.2198 23.6478 31.1H22.1002C21.6031 31.1 21.2002 31.503 21.2002 32C21.2002 32.4971 21.6031 32.9 22.1002 32.9H23.6478C23.7416 33.7802 23.9713 34.6198 24.3156 35.3973L22.9763 36.1706C22.5458 36.4191 22.3983 36.9695 22.6469 37.4C22.8954 37.8305 23.4458 37.9779 23.8763 37.7294L25.2169 36.9554C25.7285 37.6545 26.3455 38.2716 27.0446 38.7832L26.2706 40.1237C26.0221 40.5541 26.1696 41.1045 26.6001 41.3531C27.0305 41.6016 27.581 41.4541 27.8295 41.0237L28.6026 39.6845C29.3802 40.0289 30.2199 40.2586 31.1002 40.3524V41.9C31.1002 42.3971 31.5031 42.8 32.0002 42.8C32.4973 42.8 32.9002 42.3971 32.9002 41.9V40.3524C33.7805 40.2586 34.6201 40.0289 35.3977 39.6845L36.1709 41.0237C36.4194 41.4541 36.9699 41.6016 37.4003 41.3531C37.8308 41.1046 37.9783 40.5541 37.7297 40.1237L36.9558 38.7832C37.6549 38.2716 38.2719 37.6546 38.7835 36.9555L40.1239 37.7294C40.5544 37.9779 41.1048 37.8305 41.3533 37.4C41.6019 36.9695 41.4544 36.4191 41.0239 36.1706L39.6848 35.3974C40.0291 34.6199 40.2588 33.7802 40.3525 32.9H41.9002C42.3973 32.9 42.8002 32.4971 42.8002 32C42.8002 31.503 42.3973 31.1 41.9002 31.1H40.3525C40.2588 30.2198 40.0291 29.3801 39.6848 28.6026L41.0239 27.8294C41.4544 27.5809 41.6019 27.0305 41.3533 26.6C41.1048 26.1695 40.5544 26.022 40.1239 26.2706L38.7834 27.0445C38.2718 26.3454 37.6548 25.7283 36.9556 25.2167ZM32.0002 25.4C30.8136 25.4 29.7002 25.7131 28.738 26.2613C28.7257 26.2692 28.7131 26.2769 28.7003 26.2843C28.6879 26.2914 28.6754 26.2982 28.6629 26.3047C27.6882 26.8771 26.8735 27.6925 26.302 28.6677C26.2963 28.6785 26.2904 28.6893 26.2842 28.7C26.2778 28.7111 26.2711 28.7221 26.2643 28.7328C25.7144 29.6961 25.4002 30.8114 25.4002 32C25.4002 33.1885 25.7143 34.3037 26.2641 35.2669C26.271 35.2777 26.2777 35.2888 26.2842 35.3C26.2904 35.3108 26.2964 35.3217 26.3021 35.3326C26.874 36.3083 27.6894 37.1241 28.6648 37.6964C28.6766 37.7026 28.6884 37.709 28.7001 37.7158C28.7122 37.7228 28.7241 37.73 28.7358 37.7375C29.6985 38.2864 30.8127 38.6 32.0002 38.6C33.1879 38.6 34.3022 38.2863 35.265 37.7372C35.2766 37.7299 35.2883 37.7227 35.3003 37.7158C35.3119 37.7091 35.3235 37.7027 35.3352 37.6966C36.3098 37.1249 37.1246 36.3101 37.6965 35.3356C37.7027 35.3236 37.7092 35.3118 37.716 35.3C37.7231 35.2878 37.7304 35.2758 37.7379 35.264C38.2867 34.3014 38.6002 33.1873 38.6002 32C38.6002 30.8126 38.2866 29.6984 37.7377 28.7357C37.7303 28.724 37.723 28.7121 37.716 28.7C37.7093 28.6883 37.7028 28.6765 37.6967 28.6647C37.1251 27.6907 36.311 26.8763 35.3371 26.3045C35.3247 26.2981 35.3123 26.2913 35.3001 26.2842C35.2874 26.2769 35.2749 26.2693 35.2627 26.2615C34.3005 25.7132 33.1869 25.4 32.0002 25.4Z" fill="#9EFF00"/>
<defs>
<linearGradient id="paint0_linear_92_53487" x1="32" y1="0" x2="32" y2="64" gradientUnits="userSpaceOnUse">
<stop stop-color="#242424"/>
<stop offset="1" stop-color="#242424" stop-opacity="0"/>
</linearGradient>
<linearGradient id="paint1_linear_92_53487" x1="148.364" y1="-63.6364" x2="6.01465e-06" y2="64" gradientUnits="userSpaceOnUse">
<stop offset="0.224072" stop-color="#9EFF00"/>
<stop offset="0.687143" stop-color="#9EFF00" stop-opacity="0"/>
</linearGradient>
<linearGradient id="paint2_linear_92_53487" x1="32" y1="0" x2="32" y2="64" gradientUnits="userSpaceOnUse">
<stop stop-color="#2E2E2E"/>
<stop offset="1" stop-color="#2E2E2E" stop-opacity="0"/>
</linearGradient>
</defs>
</svg>
