<svg width="64" height="64" viewBox="0 0 64 64" fill="none" xmlns="http://www.w3.org/2000/svg">
<rect x="0.5" y="0.5" width="63" height="63" rx="7.5" fill="url(#paint0_linear_92_53514)"/>
<rect x="0.5" y="0.5" width="63" height="63" rx="7.5" fill="url(#paint1_linear_92_53514)" fill-opacity="0.2"/>
<rect x="0.5" y="0.5" width="63" height="63" rx="7.5" stroke="url(#paint2_linear_92_53514)"/>
<path d="M35.0539 40.6659H41.0274C42.3414 40.6659 43.2201 39.8275 43.2201 38.5699V25.6959C43.2201 24.4384 42.3414 23.6 41.0274 23.6H35.0539C33.7399 23.6 32.8532 24.4384 32.8532 25.6959V38.5699C32.8532 39.8275 33.7399 40.6659 35.0539 40.6659ZM35.2151 39.368C34.538 39.368 34.1511 39.0052 34.1511 38.3603V25.9055C34.1511 25.2606 34.538 24.8979 35.2151 24.8979H40.8581C41.5353 24.8979 41.9222 25.2606 41.9222 25.9055V38.3603C41.9222 39.0052 41.5353 39.368 40.8581 39.368H35.2151ZM22.0671 38.7472C22.4863 38.7472 22.7845 38.4571 22.7845 38.0379V36.8125C22.7845 33.8137 24.6145 32.8463 26.9603 32.8463H27.4924L29.7254 32.7738V32.3224L27.5327 34.3216L26.6459 35.0793C26.4605 35.2325 26.4121 35.434 26.4121 35.6275C26.4121 36.0225 26.7185 36.3208 27.1135 36.3208C27.307 36.3208 27.4762 36.2482 27.6536 36.0789L31.0636 32.6771C31.2248 32.5239 31.3135 32.3385 31.3135 32.137C31.3135 31.9354 31.2248 31.75 31.0636 31.5968L27.6375 28.1788C27.4762 28.0176 27.307 27.9531 27.1135 27.9531C26.7185 27.9531 26.4121 28.2433 26.4121 28.6464C26.4121 28.8399 26.4605 29.0414 26.6459 29.1946L27.5327 29.9523L29.7254 31.9515V31.5001L27.4924 31.4275H26.9603C24.0985 31.4275 21.3496 32.7416 21.3496 36.8125V38.0379C21.3496 38.4571 21.6479 38.7472 22.0671 38.7472Z" fill="#9EFF00"/>
<defs>
<linearGradient id="paint0_linear_92_53514" x1="32" y1="0" x2="32" y2="64" gradientUnits="userSpaceOnUse">
<stop stop-color="#242424"/>
<stop offset="1" stop-color="#242424" stop-opacity="0"/>
</linearGradient>
<linearGradient id="paint1_linear_92_53514" x1="148.364" y1="-63.6364" x2="6.01465e-06" y2="64" gradientUnits="userSpaceOnUse">
<stop offset="0.224072" stop-color="#9EFF00"/>
<stop offset="0.687143" stop-color="#9EFF00" stop-opacity="0"/>
</linearGradient>
<linearGradient id="paint2_linear_92_53514" x1="32" y1="0" x2="32" y2="64" gradientUnits="userSpaceOnUse">
<stop stop-color="#2E2E2E"/>
<stop offset="1" stop-color="#2E2E2E" stop-opacity="0"/>
</linearGradient>
</defs>
</svg>
