<svg width="64" height="64" viewBox="0 0 64 64" fill="none" xmlns="http://www.w3.org/2000/svg">
<rect x="0.5" y="0.5" width="63" height="63" rx="7.5" fill="url(#paint0_linear_92_53553)"/>
<rect x="0.5" y="0.5" width="63" height="63" rx="7.5" fill="url(#paint1_linear_92_53553)" fill-opacity="0.2"/>
<rect x="0.5" y="0.5" width="63" height="63" rx="7.5" stroke="url(#paint2_linear_92_53553)"/>
<path d="M22.5824 38.7521H41.3759C42.994 38.7521 43.8078 37.9856 43.8078 36.3201V25.4755C43.8078 23.8195 42.994 23.053 41.3759 23.053H22.5824C20.9642 23.053 20.1504 23.8195 20.1504 25.4755V36.3201C20.1504 37.9856 20.9642 38.7521 22.5824 38.7521ZM27.2192 41.96H36.739C37.1554 41.96 37.5055 41.6193 37.5055 41.1935C37.5055 40.7677 37.1554 40.427 36.739 40.427H27.2192C26.8029 40.427 26.4527 40.7677 26.4527 41.1935C26.4527 41.6193 26.8029 41.96 27.2192 41.96ZM32.4712 34.8249C32.263 34.8249 32.1305 34.7019 32.1021 34.5032C31.6858 31.6548 31.3167 31.0208 28.3264 30.718C28.1277 30.6896 28.0047 30.5476 28.0047 30.3584C28.0047 30.1786 28.1277 30.0272 28.3264 29.9988C31.3072 29.6014 31.5627 29.0809 32.1021 26.2042C32.1495 26.0149 32.2819 25.8919 32.4712 25.8919C32.651 25.8919 32.7929 26.0244 32.8213 26.2136C33.2472 29.0336 33.6351 29.6014 36.6065 29.9988C36.7958 30.0272 36.9282 30.1786 36.9282 30.3584C36.9282 30.5476 36.7958 30.6896 36.6065 30.718C33.6257 31.1155 33.3607 31.6548 32.8213 34.5126C32.7834 34.7019 32.651 34.8249 32.4712 34.8249ZM28.6292 36.4242C28.4778 36.4242 28.4021 36.3201 28.3548 36.1687C28.0709 34.7776 28.1939 34.7114 26.6609 34.4842C26.5 34.4559 26.4149 34.3612 26.4149 34.2098C26.4149 34.0773 26.5 33.9638 26.642 33.9449C28.1939 33.6894 28.0709 33.6231 28.3548 32.2415C28.4021 32.0901 28.4873 31.986 28.6292 31.986C28.7712 31.986 28.8658 32.0996 28.9036 32.2415C29.1686 33.6231 29.074 33.6894 30.6259 33.9449C30.7584 33.9638 30.853 34.0773 30.853 34.2098C30.853 34.3423 30.7584 34.4559 30.6259 34.4842C29.074 34.7114 29.1686 34.7776 28.9036 36.197C28.8658 36.3295 28.7617 36.4242 28.6292 36.4242Z" fill="#9EFF00"/>
<defs>
<linearGradient id="paint0_linear_92_53553" x1="32" y1="0" x2="32" y2="64" gradientUnits="userSpaceOnUse">
<stop stop-color="#242424"/>
<stop offset="1" stop-color="#242424" stop-opacity="0"/>
</linearGradient>
<linearGradient id="paint1_linear_92_53553" x1="148.364" y1="-63.6364" x2="6.01465e-06" y2="64" gradientUnits="userSpaceOnUse">
<stop offset="0.224072" stop-color="#9EFF00"/>
<stop offset="0.687143" stop-color="#9EFF00" stop-opacity="0"/>
</linearGradient>
<linearGradient id="paint2_linear_92_53553" x1="32" y1="0" x2="32" y2="64" gradientUnits="userSpaceOnUse">
<stop stop-color="#2E2E2E"/>
<stop offset="1" stop-color="#2E2E2E" stop-opacity="0"/>
</linearGradient>
</defs>
</svg>
