<svg width="64" height="64" viewBox="0 0 64 64" fill="none" xmlns="http://www.w3.org/2000/svg">
<rect x="0.5" y="0.5" width="63" height="63" rx="7.5" fill="url(#paint0_linear_92_53375)"/>
<rect x="0.5" y="0.5" width="63" height="63" rx="7.5" fill="url(#paint1_linear_92_53375)" fill-opacity="0.2"/>
<rect x="0.5" y="0.5" width="63" height="63" rx="7.5" stroke="url(#paint2_linear_92_53375)"/>
<g clip-path="url(#clip0_92_53375)">
<path d="M24.4428 41.6451C25.1174 41.6451 25.6552 41.1074 25.6552 40.4327C25.6552 39.758 25.1077 39.2203 24.4428 39.2203C23.7681 39.2203 23.2304 39.7678 23.2304 40.4327C23.2304 41.1171 23.7779 41.6451 24.4428 41.6451ZM21.3726 34.2043C22.0473 34.2043 22.585 33.647 22.585 32.9821C22.585 32.2977 22.0277 31.7697 21.3726 31.7697C20.6979 31.7697 20.1504 32.3172 20.1504 32.9821C20.1504 33.6568 20.7077 34.2043 21.3726 34.2043ZM24.4428 26.7635C25.1174 26.7635 25.6552 26.2159 25.6552 25.5511C25.6552 24.8666 25.1077 24.3386 24.4428 24.3386C23.7681 24.3386 23.2304 24.8764 23.2304 25.5511C23.2304 26.2257 23.7779 26.7635 24.4428 26.7635ZM31.9422 23.6346C32.6169 23.6346 33.1547 23.0871 33.1547 22.4124C33.1547 21.7378 32.6071 21.2 31.9422 21.2C31.2578 21.2 30.7298 21.7475 30.7298 22.4124C30.7298 23.0969 31.2676 23.6346 31.9422 23.6346ZM39.432 26.7439C40.1066 26.7439 40.6444 26.1964 40.6444 25.5315C40.6444 24.8471 40.0968 24.3191 39.432 24.3191C38.7475 24.3191 38.2097 24.8568 38.2097 25.5315C38.2097 26.2062 38.7573 26.7439 39.432 26.7439ZM42.5119 34.2043C43.1866 34.2043 43.7341 33.647 43.7341 32.9821C43.7341 32.2977 43.1768 31.7697 42.5119 31.7697C41.8275 31.7697 41.2897 32.3172 41.2897 32.9821C41.2897 33.6568 41.847 34.2043 42.5119 34.2043ZM39.4222 41.6549C40.0968 41.6549 40.6346 41.1171 40.6346 40.4425C40.6346 39.7678 40.087 39.23 39.4222 39.23C38.7377 39.23 38.2 39.7775 38.2 40.4425C38.2 41.1269 38.7475 41.6549 39.4222 41.6549ZM31.9422 40.1002C35.8631 40.1002 39.0506 36.9225 39.0506 32.9821C39.0506 29.3057 36.2542 26.2844 32.6658 25.9226L32.656 33.1288C32.656 33.5198 32.3138 33.8621 31.9422 33.8523C31.5121 33.8327 31.2089 33.5296 31.2089 33.1092V25.9226C27.6303 26.2844 24.8241 29.3057 24.8241 32.9821C24.8241 36.9323 28.0214 40.1002 31.9422 40.1002Z" fill="#9EFF00"/>
</g>
<defs>
<linearGradient id="paint0_linear_92_53375" x1="32" y1="0" x2="32" y2="64" gradientUnits="userSpaceOnUse">
<stop stop-color="#242424"/>
<stop offset="1" stop-color="#242424" stop-opacity="0"/>
</linearGradient>
<linearGradient id="paint1_linear_92_53375" x1="148.364" y1="-63.6364" x2="6.01465e-06" y2="64" gradientUnits="userSpaceOnUse">
<stop offset="0.224072" stop-color="#9EFF00"/>
<stop offset="0.687143" stop-color="#9EFF00" stop-opacity="0"/>
</linearGradient>
<linearGradient id="paint2_linear_92_53375" x1="32" y1="0" x2="32" y2="64" gradientUnits="userSpaceOnUse">
<stop stop-color="#2E2E2E"/>
<stop offset="1" stop-color="#2E2E2E" stop-opacity="0"/>
</linearGradient>
<clipPath id="clip0_92_53375">
<rect width="23.5837" height="21.99" fill="white" transform="translate(20.1504 21.2)"/>
</clipPath>
</defs>
</svg>
