<svg width="70" height="70" viewBox="0 0 70 70" fill="none" xmlns="http://www.w3.org/2000/svg">
<rect x="0.5" y="0.5" width="69" height="69" rx="7.5" fill="url(#paint0_linear_92_36131)"/>
<rect x="0.5" y="0.5" width="69" height="69" rx="7.5" fill="url(#paint1_linear_92_36131)" fill-opacity="0.2"/>
<rect x="0.5" y="0.5" width="69" height="69" rx="7.5" stroke="url(#paint2_linear_92_36131)"/>
<path fill-rule="evenodd" clip-rule="evenodd" d="M45.7483 21.875C45.2791 21.875 44.8204 22.0139 44.43 22.2742L38.0812 26.5067C36.4088 27.6216 34.8928 28.943 33.5665 30.4347C36.2101 31.6552 38.3449 33.79 39.5654 36.4336C41.057 35.1073 42.3784 33.5913 43.4934 31.9188L47.7259 25.5701C47.9862 25.1797 48.1251 24.721 48.1251 24.2517C48.1251 22.9391 47.061 21.875 45.7483 21.875ZM35.3745 39.4061C36.2718 38.9076 37.1328 38.3521 37.9527 37.7441C36.9125 35.1544 34.8457 33.0876 32.2559 32.0473C31.6479 32.8672 31.0925 33.7282 30.5939 34.6256L30.2458 35.2523C32.4164 35.8731 34.127 37.5837 34.7478 39.7543L35.3745 39.4061ZM28.4376 36.875C25.8487 36.875 23.7501 38.9736 23.7501 41.5625C23.7501 42.598 22.9106 43.4375 21.8751 43.4375C21.8326 43.4375 21.7904 43.4361 21.7484 43.4333C21.4032 43.4105 21.0735 43.5796 20.8906 43.8733C20.7078 44.167 20.7016 44.5375 20.8744 44.8372C22.0067 46.8002 24.1293 48.125 26.5626 48.125C30.1869 48.125 33.1251 45.1869 33.1251 41.5625C33.1251 38.9736 31.0264 36.875 28.4376 36.875Z" fill="#9EFF00"/>
<defs>
<linearGradient id="paint0_linear_92_36131" x1="35" y1="0" x2="35" y2="70" gradientUnits="userSpaceOnUse">
<stop stop-color="#242424"/>
<stop offset="1" stop-color="#242424" stop-opacity="0"/>
</linearGradient>
<linearGradient id="paint1_linear_92_36131" x1="162.273" y1="-69.6023" x2="6.57852e-06" y2="70" gradientUnits="userSpaceOnUse">
<stop offset="0.224072" stop-color="#9EFF00"/>
<stop offset="0.687143" stop-color="#9EFF00" stop-opacity="0"/>
</linearGradient>
<linearGradient id="paint2_linear_92_36131" x1="35" y1="0" x2="35" y2="70" gradientUnits="userSpaceOnUse">
<stop stop-color="#2E2E2E"/>
<stop offset="1" stop-color="#2E2E2E" stop-opacity="0"/>
</linearGradient>
</defs>
</svg>
