<svg width="74" height="74" viewBox="0 0 74 74" fill="none" xmlns="http://www.w3.org/2000/svg">
<rect x="0.5" y="0.5" width="73" height="73" rx="7.5" fill="url(#paint0_linear_100_2933)"/>
<rect x="0.5" y="0.5" width="73" height="73" rx="7.5" fill="url(#paint1_linear_100_2933)" fill-opacity="0.2"/>
<rect x="0.5" y="0.5" width="73" height="73" rx="7.5" stroke="url(#paint2_linear_100_2933)"/>
<g clip-path="url(#clip0_100_2933)">
<g clip-path="url(#clip1_100_2933)">
<path d="M24.1196 52.0962C26.3395 54.3303 29.2139 54.3588 31.4054 52.1674C33.1556 50.4171 34.849 46.4612 36.1439 44.4833L39.5875 47.9411C40.6406 49.0083 41.9213 49.0083 42.9174 47.9838L44.1411 46.7601C45.1799 45.707 45.1657 44.5117 44.0985 43.4445L32.7857 32.1174C31.7042 31.0502 30.4946 31.036 29.4559 32.0748L28.2321 33.2985C27.2075 34.3231 27.2075 35.5611 28.2748 36.6283L31.7184 40.072C29.7547 41.3669 25.813 43.0603 24.0485 44.8105C21.8713 47.002 21.8855 49.8906 24.1196 52.0962ZM27.919 50.2464C26.9372 50.2464 26.1545 49.4495 26.1545 48.4818C26.1545 47.5143 26.9372 46.7315 27.919 46.7315C28.8867 46.7315 29.6693 47.5143 29.6693 48.4818C29.6693 49.4495 28.8867 50.2464 27.919 50.2464ZM45.7918 42.7898L51.313 37.2687C52.8925 35.6892 52.8498 33.8108 51.2419 32.1743L50.5161 31.4344C49.0363 33.3554 44.8099 35.6038 43.9988 34.7927C43.8708 34.6646 43.8565 34.4085 44.0415 34.2092C45.7633 32.4875 46.8875 30.8083 47.1437 28.0762L39.8294 20.7477C38.4776 19.3959 36.1297 19.837 35.4893 22.3984C34.5928 26.0413 33.7818 28.1615 32.8995 29.9118L45.7918 42.7898Z" fill="#9EFF00"/>
</g>
</g>
<defs>
<linearGradient id="paint0_linear_100_2933" x1="37" y1="0" x2="37" y2="74" gradientUnits="userSpaceOnUse">
<stop stop-color="#242424"/>
<stop offset="1" stop-color="#242424" stop-opacity="0"/>
</linearGradient>
<linearGradient id="paint1_linear_100_2933" x1="-95.4432" y1="-73.1591" x2="74" y2="74" gradientUnits="userSpaceOnUse">
<stop offset="0.19577" stop-color="#9EFF00"/>
<stop offset="0.708531" stop-color="#9EFF00" stop-opacity="0"/>
</linearGradient>
<linearGradient id="paint2_linear_100_2933" x1="37" y1="0" x2="37" y2="74" gradientUnits="userSpaceOnUse">
<stop stop-color="#2E2E2E"/>
<stop offset="1" stop-color="#2E2E2E" stop-opacity="0"/>
</linearGradient>
<clipPath id="clip0_100_2933">
<rect width="34" height="34" fill="white" transform="translate(20 20)"/>
</clipPath>
<clipPath id="clip1_100_2933">
<rect width="30.0435" height="34.0108" fill="white" transform="translate(22.4297 20)"/>
</clipPath>
</defs>
</svg>
