<svg width="64" height="64" viewBox="0 0 64 64" fill="none" xmlns="http://www.w3.org/2000/svg">
<rect x="0.5" y="0.5" width="63" height="63" rx="7.5" fill="url(#paint0_linear_92_53493)"/>
<rect x="0.5" y="0.5" width="63" height="63" rx="7.5" fill="url(#paint1_linear_92_53493)" fill-opacity="0.2"/>
<rect x="0.5" y="0.5" width="63" height="63" rx="7.5" stroke="url(#paint2_linear_92_53493)"/>
<path d="M22.7585 33.2154C23.3411 33.2154 23.8032 32.7534 23.8032 32.1808C23.8032 31.5982 23.3411 31.1362 22.7585 31.1362C22.1759 31.1362 21.7139 31.5982 21.7139 32.1808C21.7139 32.7534 22.1759 33.2154 22.7585 33.2154ZM25.1291 26.1741C25.7116 26.1741 26.1737 25.702 26.1737 25.1295C26.1737 24.5469 25.7116 24.0848 25.1291 24.0848C24.5565 24.0848 24.0844 24.5469 24.0844 25.1295C24.0844 25.702 24.5565 26.1741 25.1291 26.1741ZM32.1905 23.8036C32.763 23.8036 33.225 23.3415 33.225 22.7589C33.225 22.1864 32.763 21.7143 32.1905 21.7143C31.6079 21.7143 31.1458 22.1864 31.1458 22.7589C31.1458 23.3415 31.6079 23.8036 32.1905 23.8036ZM39.2418 26.1741C39.8244 26.1741 40.2864 25.702 40.2864 25.1295C40.2864 24.5469 39.8244 24.0848 39.2418 24.0848C38.6592 24.0848 38.1972 24.5469 38.1972 25.1295C38.1972 25.702 38.6592 26.1741 39.2418 26.1741ZM41.6224 33.2154C42.1949 33.2154 42.657 32.7534 42.657 32.1808C42.657 31.5982 42.1949 31.1362 41.6224 31.1362C41.0398 31.1362 40.5777 31.5982 40.5777 32.1808C40.5777 32.7534 41.0398 33.2154 41.6224 33.2154ZM39.9048 40.6083C40.3467 40.6083 40.7284 40.2467 40.7284 39.8047C40.7284 39.3527 40.3467 38.981 39.9048 38.981H38.6793V32.3214C38.6793 28.6551 35.8467 25.8226 32.1905 25.8226C28.5241 25.8226 25.7116 28.6551 25.7116 32.3214V38.981H24.4661C24.0241 38.981 23.6726 39.3527 23.6726 39.8047C23.6726 40.2467 24.0241 40.6083 24.4661 40.6083H39.9048ZM33.0342 32.3516V38.981H31.3567V32.3516C31.3567 31.8895 31.7284 31.5078 32.1905 31.5078C32.6525 31.5078 33.0342 31.8895 33.0342 32.3516Z" fill="#9EFF00"/>
<defs>
<linearGradient id="paint0_linear_92_53493" x1="32" y1="0" x2="32" y2="64" gradientUnits="userSpaceOnUse">
<stop stop-color="#242424"/>
<stop offset="1" stop-color="#242424" stop-opacity="0"/>
</linearGradient>
<linearGradient id="paint1_linear_92_53493" x1="148.364" y1="-63.6364" x2="6.01465e-06" y2="64" gradientUnits="userSpaceOnUse">
<stop offset="0.224072" stop-color="#9EFF00"/>
<stop offset="0.687143" stop-color="#9EFF00" stop-opacity="0"/>
</linearGradient>
<linearGradient id="paint2_linear_92_53493" x1="32" y1="0" x2="32" y2="64" gradientUnits="userSpaceOnUse">
<stop stop-color="#2E2E2E"/>
<stop offset="1" stop-color="#2E2E2E" stop-opacity="0"/>
</linearGradient>
</defs>
</svg>
