<svg width="70" height="70" viewBox="0 0 70 70" fill="none" xmlns="http://www.w3.org/2000/svg">
<rect x="0.5" y="0.5" width="69" height="69" rx="7.5" fill="url(#paint0_linear_92_36148)"/>
<rect x="0.5" y="0.5" width="69" height="69" rx="7.5" fill="url(#paint1_linear_92_36148)" fill-opacity="0.2"/>
<rect x="0.5" y="0.5" width="69" height="69" rx="7.5" stroke="url(#paint2_linear_92_36148)"/>
<path d="M34.0625 26.6712C34.0625 26.2272 33.8299 25.826 33.561 25.4727C33.2849 25.1101 33.125 24.68 33.125 24.2187C33.125 22.9243 34.3842 21.875 35.9375 21.875C37.4908 21.875 38.75 22.9243 38.75 24.2188C38.75 24.68 38.5901 25.1101 38.314 25.4727C38.0451 25.826 37.8125 26.2272 37.8125 26.6712C37.8125 27.0866 38.1596 27.4182 38.5743 27.3935C40.9626 27.251 43.3123 26.9666 45.6152 26.5487C45.8687 26.5027 46.1299 26.5631 46.3375 26.7155C46.5451 26.868 46.6808 27.0991 46.7128 27.3547C46.9929 29.5915 47.1516 31.8658 47.1823 34.1706C47.1884 34.6285 46.8167 34.9999 46.3587 35C45.9147 35 45.5135 34.7674 45.1602 34.4985C44.7976 34.2224 44.3675 34.0625 43.9062 34.0625C42.6118 34.0625 41.5625 35.3217 41.5625 36.875C41.5625 38.4283 42.6118 39.6875 43.9062 39.6875C44.3675 39.6875 44.7976 39.5276 45.1602 39.2515C45.5135 38.9826 45.9147 38.75 46.3587 38.75C46.7467 38.75 47.0548 39.0771 47.0268 39.4641C46.8785 41.5123 46.6289 43.5327 46.2829 45.5202C46.2151 45.9099 45.9098 46.2152 45.5201 46.283C43.2462 46.6787 40.9293 46.9484 38.5769 47.0846C38.1606 47.1087 37.8125 46.7756 37.8125 46.3587C37.8125 45.9147 38.0451 45.5135 38.314 45.1602C38.5901 44.7976 38.75 44.3675 38.75 43.9062C38.75 42.6118 37.4908 41.5625 35.9375 41.5625C34.3842 41.5625 33.125 42.6118 33.125 43.9062C33.125 44.3675 33.2849 44.7976 33.561 45.1602C33.8299 45.5135 34.0625 45.9147 34.0625 46.3587C34.0625 46.8106 33.6924 47.1757 33.2407 47.1628C31.2538 47.1065 29.2905 46.955 27.3552 46.7127C27.0996 46.6807 26.8684 46.5449 26.716 46.3373C26.5635 46.1297 26.5032 45.8685 26.5492 45.6151C26.9153 43.5976 27.1789 41.5442 27.3345 39.4604C27.3632 39.0756 27.057 38.75 26.6712 38.75C26.2272 38.75 25.826 38.9826 25.4727 39.2515C25.1101 39.5276 24.68 39.6875 24.2187 39.6875C22.9243 39.6875 21.875 38.4283 21.875 36.875C21.875 35.3217 22.9243 34.0625 24.2187 34.0625C24.68 34.0625 25.1101 34.2224 25.4727 34.4985C25.826 34.7674 26.2272 35 26.6712 35C27.1291 35 27.501 34.6287 27.4947 34.1708C27.4667 32.1356 27.3358 30.1253 27.107 28.1454C27.0741 27.861 27.173 27.5772 27.3754 27.3748C27.5778 27.1724 27.8616 27.0736 28.1459 27.1064C29.8238 27.3003 31.5233 27.4239 33.2413 27.4741C33.6927 27.4873 34.0625 27.1227 34.0625 26.6712Z" fill="#9EFF00"/>
<defs>
<linearGradient id="paint0_linear_92_36148" x1="35" y1="0" x2="35" y2="70" gradientUnits="userSpaceOnUse">
<stop stop-color="#242424"/>
<stop offset="1" stop-color="#242424" stop-opacity="0"/>
</linearGradient>
<linearGradient id="paint1_linear_92_36148" x1="162.273" y1="-69.6023" x2="6.57852e-06" y2="70" gradientUnits="userSpaceOnUse">
<stop offset="0.224072" stop-color="#9EFF00"/>
<stop offset="0.687143" stop-color="#9EFF00" stop-opacity="0"/>
</linearGradient>
<linearGradient id="paint2_linear_92_36148" x1="35" y1="0" x2="35" y2="70" gradientUnits="userSpaceOnUse">
<stop stop-color="#2E2E2E"/>
<stop offset="1" stop-color="#2E2E2E" stop-opacity="0"/>
</linearGradient>
</defs>
</svg>
