<svg width="64" height="64" viewBox="0 0 64 64" fill="none" xmlns="http://www.w3.org/2000/svg">
<rect x="0.5" y="0.5" width="63" height="63" rx="7.5" fill="url(#paint0_linear_92_53544)"/>
<rect x="0.5" y="0.5" width="63" height="63" rx="7.5" fill="url(#paint1_linear_92_53544)" fill-opacity="0.2"/>
<rect x="0.5" y="0.5" width="63" height="63" rx="7.5" stroke="url(#paint2_linear_92_53544)"/>
<g clip-path="url(#clip0_92_53544)">
<path d="M23.5967 31.4298C23.8157 31.4045 24.0432 31.3877 24.2622 31.3877C24.498 31.3877 24.7254 31.4045 24.9529 31.4382V29.6019H23.5967V31.4298ZM23.5967 28.448H24.9529V26.6875C24.9529 25.8115 25.4162 25.3651 26.2585 25.3651H28.0021V24.0089H26.2416C24.4812 24.0089 23.5967 24.8765 23.5967 26.6201V28.448ZM29.1561 25.3651H32.9549V24.0089H29.1561V25.3651ZM34.1005 25.3651H37.8994V24.0089H34.1005V25.3651ZM43.4587 28.448V26.6201C43.4587 24.8765 42.5743 24.0089 40.8138 24.0089H39.0534V25.3651H40.797C41.6393 25.3651 42.1026 25.8115 42.1026 26.6875V28.448H43.4587ZM43.4587 33.923V29.6019H42.1026V33.923H43.4587ZM40.8138 39.5161C42.5743 39.5161 43.4587 38.6485 43.4587 36.9049V35.077H42.1026V36.8375C42.1026 37.7135 41.6393 38.16 40.797 38.16H39.0534V39.5161H40.8138ZM34.1005 39.5161H37.8994V38.16H34.1005V39.5161ZM28.9876 39.5077L32.9549 39.5161V38.16H29.5183C29.4087 38.6401 29.2319 39.0865 28.9876 39.5077ZM24.279 41.1081C26.6207 41.1081 28.558 39.1707 28.558 36.8291C28.558 34.4958 26.6122 32.5501 24.2706 32.5501C21.9373 32.5501 20 34.4958 20 36.8291C20 39.1707 21.9458 41.1081 24.279 41.1081ZM24.279 40.0973C22.468 40.0973 21.0192 38.6401 21.0192 36.8291C21.0192 35.0265 22.468 33.5608 24.2706 33.5608C26.0816 33.5608 27.5388 35.0265 27.5472 36.8291C27.5556 38.6401 26.0816 40.0973 24.279 40.0973ZM24.2706 39.3645C25.6688 39.3645 26.806 38.2189 26.806 36.8375C26.806 35.4477 25.6604 34.3021 24.2706 34.3021C22.8807 34.3021 21.7436 35.4477 21.7436 36.8375C21.7436 38.2189 22.8892 39.3645 24.2706 39.3645Z" fill="#9EFF00"/>
</g>
<defs>
<linearGradient id="paint0_linear_92_53544" x1="32" y1="0" x2="32" y2="64" gradientUnits="userSpaceOnUse">
<stop stop-color="#242424"/>
<stop offset="1" stop-color="#242424" stop-opacity="0"/>
</linearGradient>
<linearGradient id="paint1_linear_92_53544" x1="148.364" y1="-63.6364" x2="6.01465e-06" y2="64" gradientUnits="userSpaceOnUse">
<stop offset="0.224072" stop-color="#9EFF00"/>
<stop offset="0.687143" stop-color="#9EFF00" stop-opacity="0"/>
</linearGradient>
<linearGradient id="paint2_linear_92_53544" x1="32" y1="0" x2="32" y2="64" gradientUnits="userSpaceOnUse">
<stop stop-color="#2E2E2E"/>
<stop offset="1" stop-color="#2E2E2E" stop-opacity="0"/>
</linearGradient>
<clipPath id="clip0_92_53544">
<rect width="23.4587" height="18.708" fill="white" transform="translate(20 22.4)"/>
</clipPath>
</defs>
</svg>
