<svg width="64" height="64" viewBox="0 0 64 64" fill="none" xmlns="http://www.w3.org/2000/svg">
<rect x="0.5" y="0.5" width="63" height="63" rx="7.5" fill="url(#paint0_linear_92_53652)"/>
<rect x="0.5" y="0.5" width="63" height="63" rx="7.5" fill="url(#paint1_linear_92_53652)" fill-opacity="0.2"/>
<rect x="0.5" y="0.5" width="63" height="63" rx="7.5" stroke="url(#paint2_linear_92_53652)"/>
<path d="M40.1229 34.1095V26.4254C40.1229 25.3707 39.6709 25.0292 38.8171 24.6776C37.6318 24.1955 33.8049 22.739 32.6196 22.3975C32.3483 22.3272 32.0571 22.2468 31.7758 22.2468C31.4946 22.2468 31.2033 22.3071 30.9421 22.3975C29.7468 22.8093 25.9198 24.1854 24.7345 24.6776C23.8908 25.0392 23.4287 25.3707 23.4287 26.4254V34.1095C23.4287 37.7759 25.3874 39.1319 31.1028 42.3361C31.364 42.4768 31.6151 42.537 31.7758 42.537C31.9365 42.537 32.1977 42.4768 32.4488 42.3361C38.1542 39.1218 40.1229 37.7759 40.1229 34.1095ZM31.5649 40.6787C31.4443 40.6486 31.3138 40.5783 31.153 40.4778C26.5225 37.6553 25.0258 36.8417 25.0258 33.7379V26.7368C25.0258 26.3953 25.0861 26.2546 25.3673 26.1542C26.9242 25.6218 29.8573 24.5571 31.374 23.9544C31.4544 23.9243 31.5146 23.9042 31.5649 23.8941V40.6787Z" fill="#9EFF00"/>
<defs>
<linearGradient id="paint0_linear_92_53652" x1="32" y1="0" x2="32" y2="64" gradientUnits="userSpaceOnUse">
<stop stop-color="#242424"/>
<stop offset="1" stop-color="#242424" stop-opacity="0"/>
</linearGradient>
<linearGradient id="paint1_linear_92_53652" x1="148.364" y1="-63.6364" x2="6.01465e-06" y2="64" gradientUnits="userSpaceOnUse">
<stop offset="0.224072" stop-color="#9EFF00"/>
<stop offset="0.687143" stop-color="#9EFF00" stop-opacity="0"/>
</linearGradient>
<linearGradient id="paint2_linear_92_53652" x1="32" y1="0" x2="32" y2="64" gradientUnits="userSpaceOnUse">
<stop stop-color="#2E2E2E"/>
<stop offset="1" stop-color="#2E2E2E" stop-opacity="0"/>
</linearGradient>
</defs>
</svg>
