<svg width="64" height="64" viewBox="0 0 64 64" fill="none" xmlns="http://www.w3.org/2000/svg">
<rect x="0.5" y="0.5" width="63" height="63" rx="7.5" fill="url(#paint0_linear_92_53336)"/>
<rect x="0.5" y="0.5" width="63" height="63" rx="7.5" fill="url(#paint1_linear_92_53336)" fill-opacity="0.2"/>
<rect x="0.5" y="0.5" width="63" height="63" rx="7.5" stroke="url(#paint2_linear_92_53336)"/>
<path d="M28.6264 39.7086H37.2799C38.9568 39.7086 39.7953 38.862 39.7953 37.1524V27.2779C39.7953 25.5765 38.9568 24.7217 37.2799 24.7217H29.4893L30.8244 26.0323H37.2066C38.0532 26.0323 38.4847 26.4801 38.4847 27.2941V37.1362C38.4847 37.9502 38.0532 38.3979 37.2147 38.3979H28.6915C27.853 38.3979 27.4134 37.9502 27.4134 37.1362V31.3237H26.1028V37.1524C26.1028 38.862 26.9494 39.7086 28.6264 39.7086ZM29.8637 29.5247H35.8553C36.1402 29.5247 36.36 29.3049 36.36 29.0199C36.36 28.7432 36.1402 28.5234 35.8553 28.5234H29.8637C29.5625 28.5234 29.3509 28.7432 29.3509 29.0199C29.3509 29.3049 29.5625 29.5247 29.8637 29.5247ZM29.8637 32.7158H35.8553C36.1402 32.7158 36.36 32.4879 36.36 32.2029C36.36 31.9262 36.1402 31.7145 35.8553 31.7145H29.8637C29.5625 31.7145 29.3509 31.9262 29.3509 32.2029C29.3509 32.4879 29.5625 32.7158 29.8637 32.7158ZM29.8637 35.8987H35.8553C36.1402 35.8987 36.36 35.6872 36.36 35.4103C36.36 35.1254 36.1402 34.8975 35.8553 34.8975H29.8637C29.5625 34.8975 29.3509 35.1254 29.3509 35.4103C29.3509 35.6872 29.5625 35.8987 29.8637 35.8987ZM23.7501 28.0187C23.742 28.328 24.1165 28.4339 24.32 28.2303L25.5655 26.9848L26.9575 30.4201C27.0227 30.5748 27.1855 30.6481 27.332 30.5911L28.1461 30.2655C28.2845 30.2003 28.3414 30.0294 28.2682 29.8747L26.811 26.4964L28.5612 26.4231C28.8706 26.4068 29.0253 26.1137 28.8055 25.8777L24.3525 21.3026C24.149 21.0991 23.8315 21.2131 23.8234 21.5143L23.7501 28.0187Z" fill="#9EFF00"/>
<defs>
<linearGradient id="paint0_linear_92_53336" x1="32" y1="0" x2="32" y2="64" gradientUnits="userSpaceOnUse">
<stop stop-color="#242424"/>
<stop offset="1" stop-color="#242424" stop-opacity="0"/>
</linearGradient>
<linearGradient id="paint1_linear_92_53336" x1="148.364" y1="-63.6364" x2="6.01465e-06" y2="64" gradientUnits="userSpaceOnUse">
<stop offset="0.224072" stop-color="#9EFF00"/>
<stop offset="0.687143" stop-color="#9EFF00" stop-opacity="0"/>
</linearGradient>
<linearGradient id="paint2_linear_92_53336" x1="32" y1="0" x2="32" y2="64" gradientUnits="userSpaceOnUse">
<stop stop-color="#2E2E2E"/>
<stop offset="1" stop-color="#2E2E2E" stop-opacity="0"/>
</linearGradient>
</defs>
</svg>
