<svg width="64" height="64" viewBox="0 0 64 64" fill="none" xmlns="http://www.w3.org/2000/svg">
<rect x="0.5" y="0.5" width="63" height="63" rx="7.5" fill="url(#paint0_linear_92_53345)"/>
<rect x="0.5" y="0.5" width="63" height="63" rx="7.5" fill="url(#paint1_linear_92_53345)" fill-opacity="0.2"/>
<rect x="0.5" y="0.5" width="63" height="63" rx="7.5" stroke="url(#paint2_linear_92_53345)"/>
<g clip-path="url(#clip0_92_53345)">
<path d="M20.9004 32.1261C20.9004 36.3614 23.3442 40.099 26.6837 41.9346C27.8448 42.587 28.8069 41.0389 27.5241 40.2981C24.7486 38.7499 22.7913 35.6757 22.7913 32.1261C22.7913 26.9067 26.9491 22.7268 32.1685 22.7268C37.3879 22.7268 41.5789 26.9067 41.5789 32.1261C41.5789 32.7896 42.0875 33.1103 42.5742 33.1103C43.0275 33.1103 43.4587 32.7786 43.4587 32.1261C43.4587 25.9558 38.3389 20.847 32.1685 20.847C26.0092 20.847 20.9004 25.9558 20.9004 32.1261ZM25.3678 32.1261C25.3678 34.5921 26.7169 36.6599 28.3314 37.6994C29.4482 38.4513 30.4103 36.9585 29.4704 36.3171C28.0992 35.4214 27.1924 33.8844 27.1924 32.1261C27.1924 29.3395 29.404 27.1279 32.1685 27.1279C34.933 27.1279 37.0672 29.3285 37.1668 32.1261C37.1888 32.6348 37.5759 33.0329 38.0845 33.0329C38.5932 33.0329 38.9913 32.6348 38.9913 32.1261C38.9913 28.3885 35.9061 25.3033 32.1685 25.3033C28.453 25.3033 25.3678 28.3885 25.3678 32.1261ZM31.7483 40.1322C31.7373 40.5634 32.2459 40.7072 32.5224 40.4307L34.2143 38.7388L36.1052 43.4053C36.1936 43.6154 36.4148 43.715 36.6138 43.6375L37.7086 43.1952C37.9076 43.1067 37.9851 42.8745 37.8855 42.6645L35.9061 38.0643L38.2836 37.9758C38.7038 37.9537 38.9028 37.5446 38.6043 37.235L32.5666 31.0203C32.2791 30.7328 31.8589 30.8987 31.8479 31.3078L31.7483 40.1322Z" fill="#9EFF00"/>
</g>
<defs>
<linearGradient id="paint0_linear_92_53345" x1="32" y1="0" x2="32" y2="64" gradientUnits="userSpaceOnUse">
<stop stop-color="#242424"/>
<stop offset="1" stop-color="#242424" stop-opacity="0"/>
</linearGradient>
<linearGradient id="paint1_linear_92_53345" x1="148.364" y1="-63.6364" x2="6.01465e-06" y2="64" gradientUnits="userSpaceOnUse">
<stop offset="0.224072" stop-color="#9EFF00"/>
<stop offset="0.687143" stop-color="#9EFF00" stop-opacity="0"/>
</linearGradient>
<linearGradient id="paint2_linear_92_53345" x1="32" y1="0" x2="32" y2="64" gradientUnits="userSpaceOnUse">
<stop stop-color="#2E2E2E"/>
<stop offset="1" stop-color="#2E2E2E" stop-opacity="0"/>
</linearGradient>
<clipPath id="clip0_92_53345">
<rect width="24" height="24" fill="white" transform="translate(20 20)"/>
</clipPath>
</defs>
</svg>
