<svg width="64" height="64" viewBox="0 0 64 64" fill="none" xmlns="http://www.w3.org/2000/svg">
<rect x="0.5" y="0.5" width="63" height="63" rx="7.5" fill="url(#paint0_linear_92_53568)"/>
<rect x="0.5" y="0.5" width="63" height="63" rx="7.5" fill="url(#paint1_linear_92_53568)" fill-opacity="0.2"/>
<rect x="0.5" y="0.5" width="63" height="63" rx="7.5" stroke="url(#paint2_linear_92_53568)"/>
<path d="M25.625 23.75C24.1753 23.75 23 24.9253 23 26.375C23 27.8247 24.1753 29 25.625 29H38.375C39.8247 29 41 27.8247 41 26.375C41 24.9253 39.8247 23.75 38.375 23.75H25.625Z" fill="#9EFF00"/>
<path d="M23.75 31.25C23.3358 31.25 23 31.5858 23 32C23 32.4142 23.3358 32.75 23.75 32.75H40.25C40.6642 32.75 41 32.4142 41 32C41 31.5858 40.6642 31.25 40.25 31.25H23.75Z" fill="#9EFF00"/>
<path d="M23 35.75C23 35.3358 23.3358 35 23.75 35H40.25C40.6642 35 41 35.3358 41 35.75C41 36.1642 40.6642 36.5 40.25 36.5H23.75C23.3358 36.5 23 36.1642 23 35.75Z" fill="#9EFF00"/>
<path d="M23.75 38.75C23.3358 38.75 23 39.0858 23 39.5C23 39.9142 23.3358 40.25 23.75 40.25H40.25C40.6642 40.25 41 39.9142 41 39.5C41 39.0858 40.6642 38.75 40.25 38.75H23.75Z" fill="#9EFF00"/>
<defs>
<linearGradient id="paint0_linear_92_53568" x1="32" y1="0" x2="32" y2="64" gradientUnits="userSpaceOnUse">
<stop stop-color="#242424"/>
<stop offset="1" stop-color="#242424" stop-opacity="0"/>
</linearGradient>
<linearGradient id="paint1_linear_92_53568" x1="148.364" y1="-63.6364" x2="6.01465e-06" y2="64" gradientUnits="userSpaceOnUse">
<stop offset="0.224072" stop-color="#9EFF00"/>
<stop offset="0.687143" stop-color="#9EFF00" stop-opacity="0"/>
</linearGradient>
<linearGradient id="paint2_linear_92_53568" x1="32" y1="0" x2="32" y2="64" gradientUnits="userSpaceOnUse">
<stop stop-color="#2E2E2E"/>
<stop offset="1" stop-color="#2E2E2E" stop-opacity="0"/>
</linearGradient>
</defs>
</svg>
