<svg width="64" height="64" viewBox="0 0 64 64" fill="none" xmlns="http://www.w3.org/2000/svg">
<rect x="0.5" y="0.5" width="63" height="63" rx="7.5" fill="url(#paint0_linear_92_53432)"/>
<rect x="0.5" y="0.5" width="63" height="63" rx="7.5" fill="url(#paint1_linear_92_53432)" fill-opacity="0.2"/>
<rect x="0.5" y="0.5" width="63" height="63" rx="7.5" stroke="url(#paint2_linear_92_53432)"/>
<path d="M23.4287 40.6919C23.4287 41.4755 23.5995 41.9476 24.3428 42.3091C26.0604 43.0524 28.4309 43.5447 31.2736 43.5447C34.0861 43.5447 37.2501 43.1228 39.5202 42.0179C40.7256 41.4453 41.0169 40.9129 41.0169 39.6674V24.2489C41.0169 22.6216 40.2937 21.8784 38.7267 21.8784H37.7825V21.4766C37.7825 20.4821 37.2803 20 36.3963 20C36.095 20 35.7334 20.0703 35.3015 20.2109C32.268 21.2054 29.4957 21.8382 25.9399 21.8382H25.1363C24.0515 21.8382 23.4287 22.471 23.4287 23.4554V40.6919ZM26.9946 29.452V26.0569C26.9946 25.9163 27.095 25.7958 27.2356 25.7857C29.576 25.6953 31.6653 25.2835 33.8049 24.5C33.9254 24.4498 34.1363 24.5 34.1363 24.7411V28.2868C34.1363 28.3772 34.0861 28.4676 33.9957 28.4978C32.1273 29.2612 29.6664 29.6931 27.2356 29.6931C27.105 29.6931 26.9946 29.6127 26.9946 29.452ZM27.5068 41.827C31.4544 41.7165 35.1207 40.6116 37.1095 39.0948C37.5716 38.7433 37.7825 38.3817 37.7825 37.4978V23.4955H38.7368C39.1787 23.4955 39.3997 23.7366 39.3997 24.2489V39.5569C39.3997 40.1596 39.3093 40.3805 38.7368 40.6317C36.7378 41.5055 33.9254 42.0681 31.2736 42.0681C30.008 42.0681 28.8126 41.9978 27.5068 41.827Z" fill="#9EFF00"/>
<defs>
<linearGradient id="paint0_linear_92_53432" x1="32" y1="0" x2="32" y2="64" gradientUnits="userSpaceOnUse">
<stop stop-color="#242424"/>
<stop offset="1" stop-color="#242424" stop-opacity="0"/>
</linearGradient>
<linearGradient id="paint1_linear_92_53432" x1="148.364" y1="-63.6364" x2="6.01465e-06" y2="64" gradientUnits="userSpaceOnUse">
<stop offset="0.224072" stop-color="#9EFF00"/>
<stop offset="0.687143" stop-color="#9EFF00" stop-opacity="0"/>
</linearGradient>
<linearGradient id="paint2_linear_92_53432" x1="32" y1="0" x2="32" y2="64" gradientUnits="userSpaceOnUse">
<stop stop-color="#2E2E2E"/>
<stop offset="1" stop-color="#2E2E2E" stop-opacity="0"/>
</linearGradient>
</defs>
</svg>
