<svg width="64" height="64" viewBox="0 0 64 64" fill="none" xmlns="http://www.w3.org/2000/svg">
<rect x="0.5" y="0.5" width="63" height="63" rx="7.5" fill="url(#paint0_linear_92_53505)"/>
<rect x="0.5" y="0.5" width="63" height="63" rx="7.5" fill="url(#paint1_linear_92_53505)" fill-opacity="0.2"/>
<rect x="0.5" y="0.5" width="63" height="63" rx="7.5" stroke="url(#paint2_linear_92_53505)"/>
<path d="M26.2111 43.4877H37.4309C39.0983 43.4877 40.2133 42.4231 40.2133 40.836V23.519C40.2133 21.932 39.0983 20.8572 37.4309 20.8572H26.2111C24.5437 20.8572 23.4287 21.932 23.4287 23.519V40.836C23.4287 42.4231 24.5437 43.4877 26.2111 43.4877ZM26.412 41.8705C25.5481 41.8705 25.0459 41.3884 25.0459 40.5648V23.7902C25.0459 22.9666 25.5481 22.4744 26.412 22.4744H37.2301C38.0839 22.4744 38.5961 22.9666 38.5961 23.7902V40.5648C38.5961 41.3884 38.0839 41.8705 37.2301 41.8705H26.412ZM27.9689 30.1083H35.6832C36.2156 30.1083 36.5771 29.7567 36.5771 29.1942V27.0246C36.5771 26.4621 36.2156 26.1105 35.6832 26.1105H27.9689C27.4365 26.1105 27.0749 26.4621 27.0749 27.0246V29.1942C27.0749 29.7567 27.4365 30.1083 27.9689 30.1083ZM27.9689 38.2143H35.6832C36.2156 38.2143 36.5771 37.8527 36.5771 37.3003V35.1205C36.5771 34.5681 36.2156 34.2065 35.6832 34.2065H27.9689C27.4365 34.2065 27.0749 34.5681 27.0749 35.1205V37.3003C27.0749 37.8527 27.4365 38.2143 27.9689 38.2143Z" fill="#9EFF00"/>
<defs>
<linearGradient id="paint0_linear_92_53505" x1="32" y1="0" x2="32" y2="64" gradientUnits="userSpaceOnUse">
<stop stop-color="#242424"/>
<stop offset="1" stop-color="#242424" stop-opacity="0"/>
</linearGradient>
<linearGradient id="paint1_linear_92_53505" x1="148.364" y1="-63.6364" x2="6.01465e-06" y2="64" gradientUnits="userSpaceOnUse">
<stop offset="0.224072" stop-color="#9EFF00"/>
<stop offset="0.687143" stop-color="#9EFF00" stop-opacity="0"/>
</linearGradient>
<linearGradient id="paint2_linear_92_53505" x1="32" y1="0" x2="32" y2="64" gradientUnits="userSpaceOnUse">
<stop stop-color="#2E2E2E"/>
<stop offset="1" stop-color="#2E2E2E" stop-opacity="0"/>
</linearGradient>
</defs>
</svg>
