<svg width="64" height="64" viewBox="0 0 64 64" fill="none" xmlns="http://www.w3.org/2000/svg">
<rect x="0.5" y="0.5" width="63" height="63" rx="7.5" fill="url(#paint0_linear_92_53384)"/>
<rect x="0.5" y="0.5" width="63" height="63" rx="7.5" fill="url(#paint1_linear_92_53384)" fill-opacity="0.2"/>
<rect x="0.5" y="0.5" width="63" height="63" rx="7.5" stroke="url(#paint2_linear_92_53384)"/>
<g clip-path="url(#clip0_92_53384)">
<path d="M26.0112 42.572C26.5429 42.572 26.8031 42.2892 26.8937 41.8253L29.1338 30.4209L28.0024 31.3373H36.4427L35.3112 30.4209L37.5514 41.8253C37.6419 42.2892 37.9021 42.572 38.4339 42.572C39.1919 42.572 39.4522 42.0516 39.3276 41.4406L37.2119 30.6698C37.0762 29.957 36.4765 29.4365 35.7864 29.4365H28.67C27.9798 29.4365 27.3802 29.957 27.2444 30.6698L25.1287 41.4406C25.0042 42.0516 25.2758 42.572 26.0112 42.572ZM28.421 30.353H36.0353L33.2181 21.9467C33.0484 21.4715 32.7317 21.2 32.2451 21.2C31.736 21.2 31.3853 21.4715 31.2269 21.9467L28.421 30.353Z" fill="#9EFF00"/>
</g>
<defs>
<linearGradient id="paint0_linear_92_53384" x1="32" y1="0" x2="32" y2="64" gradientUnits="userSpaceOnUse">
<stop stop-color="#242424"/>
<stop offset="1" stop-color="#242424" stop-opacity="0"/>
</linearGradient>
<linearGradient id="paint1_linear_92_53384" x1="148.364" y1="-63.6364" x2="6.01465e-06" y2="64" gradientUnits="userSpaceOnUse">
<stop offset="0.224072" stop-color="#9EFF00"/>
<stop offset="0.687143" stop-color="#9EFF00" stop-opacity="0"/>
</linearGradient>
<linearGradient id="paint2_linear_92_53384" x1="32" y1="0" x2="32" y2="64" gradientUnits="userSpaceOnUse">
<stop stop-color="#2E2E2E"/>
<stop offset="1" stop-color="#2E2E2E" stop-opacity="0"/>
</linearGradient>
<clipPath id="clip0_92_53384">
<rect width="14.2578" height="21.372" fill="white" transform="translate(25.0996 21.2)"/>
</clipPath>
</defs>
</svg>
