<svg width="64" height="64" viewBox="0 0 64 64" fill="none" xmlns="http://www.w3.org/2000/svg">
<rect x="0.5" y="0.5" width="63" height="63" rx="7.5" fill="url(#paint0_linear_92_53661)"/>
<rect x="0.5" y="0.5" width="63" height="63" rx="7.5" fill="url(#paint1_linear_92_53661)" fill-opacity="0.2"/>
<rect x="0.5" y="0.5" width="63" height="63" rx="7.5" stroke="url(#paint2_linear_92_53661)"/>
<path d="M20.8574 40.4711C20.8574 40.9533 21.1789 41.2647 21.661 41.2647H41.6398C42.0817 41.2647 42.4534 40.9131 42.4534 40.4611C42.4534 40.0192 42.0817 39.6575 41.6398 39.6575H22.7559C22.5449 39.6575 22.4746 39.5873 22.4746 39.3763V23.4957C22.4746 23.0638 22.113 22.6921 21.671 22.6921C21.219 22.6921 20.8574 23.0638 20.8574 23.4957V40.4711ZM21.9121 34.2234L28.3708 30.4868L33.0215 34.4745L41.2882 29.5526L40.6555 28.5281L33.1019 33.0281L28.4713 29.0604L21.9121 32.8473V34.2234ZM28.2402 31.8428C29.2246 31.8428 30.0282 31.0392 30.0282 30.0549C30.0282 29.0705 29.2246 28.277 28.2402 28.277C27.2559 28.277 26.4523 29.0705 26.4523 30.0549C26.4523 31.0392 27.2559 31.8428 28.2402 31.8428ZM32.9813 35.5292C33.9657 35.5292 34.7593 34.7256 34.7593 33.7412C34.7593 32.7569 33.9657 31.9633 32.9813 31.9633C31.9969 31.9633 31.1934 32.7569 31.1934 33.7412C31.1934 34.7256 31.9969 35.5292 32.9813 35.5292ZM40.555 30.9589C41.5393 30.9589 42.3429 30.1553 42.3429 29.1709C42.3429 28.1866 41.5393 27.383 40.555 27.383C39.5706 27.383 38.767 28.1866 38.767 29.1709C38.767 30.1553 39.5706 30.9589 40.555 30.9589Z" fill="#9EFF00"/>
<defs>
<linearGradient id="paint0_linear_92_53661" x1="32" y1="0" x2="32" y2="64" gradientUnits="userSpaceOnUse">
<stop stop-color="#242424"/>
<stop offset="1" stop-color="#242424" stop-opacity="0"/>
</linearGradient>
<linearGradient id="paint1_linear_92_53661" x1="148.364" y1="-63.6364" x2="6.01465e-06" y2="64" gradientUnits="userSpaceOnUse">
<stop offset="0.224072" stop-color="#9EFF00"/>
<stop offset="0.687143" stop-color="#9EFF00" stop-opacity="0"/>
</linearGradient>
<linearGradient id="paint2_linear_92_53661" x1="32" y1="0" x2="32" y2="64" gradientUnits="userSpaceOnUse">
<stop stop-color="#2E2E2E"/>
<stop offset="1" stop-color="#2E2E2E" stop-opacity="0"/>
</linearGradient>
</defs>
</svg>
