<svg width="18" height="18" viewBox="0 0 18 18" fill="none" xmlns="http://www.w3.org/2000/svg">
<path fill-rule="evenodd" clip-rule="evenodd" d="M0 2.5C0 1.11929 1.11929 0 2.5 0H3.64302C4.36 0 4.98498 0.487964 5.15887 1.18354L6.08037 4.86952C6.23284 5.47942 6.00495 6.12129 5.50202 6.49849L4.424 7.307C4.31206 7.39096 4.28772 7.5139 4.31917 7.59974C5.26542 10.1829 7.3171 12.2346 9.90026 13.1808C9.9861 13.2123 10.109 13.1879 10.193 13.076L11.0015 11.998C11.3787 11.4951 12.0206 11.2672 12.6305 11.4196L16.3165 12.3411C17.012 12.515 17.5 13.14 17.5 13.857V15C17.5 16.3807 16.3807 17.5 15 17.5H13.125C5.87626 17.5 0 11.6237 0 4.375V2.5Z" fill="#9EFF00"/>
</svg>
