<svg width="64" height="64" viewBox="0 0 64 64" fill="none" xmlns="http://www.w3.org/2000/svg">
<rect x="0.5" y="0.5" width="63" height="63" rx="7.5" fill="url(#paint0_linear_92_53592)"/>
<rect x="0.5" y="0.5" width="63" height="63" rx="7.5" fill="url(#paint1_linear_92_53592)" fill-opacity="0.2"/>
<rect x="0.5" y="0.5" width="63" height="63" rx="7.5" stroke="url(#paint2_linear_92_53592)"/>
<path d="M38.375 22.25C37.3395 22.25 36.5 23.0895 36.5 24.125V39.875C36.5 40.9105 37.3395 41.75 38.375 41.75H39.125C40.1605 41.75 41 40.9105 41 39.875V24.125C41 23.0895 40.1605 22.25 39.125 22.25H38.375Z" fill="#9EFF00"/>
<path d="M29.75 28.625C29.75 27.5895 30.5895 26.75 31.625 26.75H32.375C33.4105 26.75 34.25 27.5895 34.25 28.625V39.875C34.25 40.9105 33.4105 41.75 32.375 41.75H31.625C30.5895 41.75 29.75 40.9105 29.75 39.875V28.625Z" fill="#9EFF00"/>
<path d="M23 33.125C23 32.0895 23.8395 31.25 24.875 31.25H25.625C26.6605 31.25 27.5 32.0895 27.5 33.125V39.875C27.5 40.9105 26.6605 41.75 25.625 41.75H24.875C23.8395 41.75 23 40.9105 23 39.875V33.125Z" fill="#9EFF00"/>
<defs>
<linearGradient id="paint0_linear_92_53592" x1="32" y1="0" x2="32" y2="64" gradientUnits="userSpaceOnUse">
<stop stop-color="#242424"/>
<stop offset="1" stop-color="#242424" stop-opacity="0"/>
</linearGradient>
<linearGradient id="paint1_linear_92_53592" x1="148.364" y1="-63.6364" x2="6.01465e-06" y2="64" gradientUnits="userSpaceOnUse">
<stop offset="0.224072" stop-color="#9EFF00"/>
<stop offset="0.687143" stop-color="#9EFF00" stop-opacity="0"/>
</linearGradient>
<linearGradient id="paint2_linear_92_53592" x1="32" y1="0" x2="32" y2="64" gradientUnits="userSpaceOnUse">
<stop stop-color="#2E2E2E"/>
<stop offset="1" stop-color="#2E2E2E" stop-opacity="0"/>
</linearGradient>
</defs>
</svg>
