<svg width="70" height="70" viewBox="0 0 70 70" fill="none" xmlns="http://www.w3.org/2000/svg">
<rect x="0.5" y="0.5" width="69" height="69" rx="7.5" fill="url(#paint0_linear_92_36159)"/>
<rect x="0.5" y="0.5" width="69" height="69" rx="7.5" fill="url(#paint1_linear_92_36159)" fill-opacity="0.2"/>
<rect x="0.5" y="0.5" width="69" height="69" rx="7.5" stroke="url(#paint2_linear_92_36159)"/>
<path d="M31.4637 37.0473C31.4637 36.9415 31.5178 36.8463 31.6043 36.7405L36.0707 31.2492C36.4058 30.826 36.9682 31.1116 36.7736 31.6301L35.3028 35.492H38.0604C38.2659 35.492 38.4498 35.6507 38.4498 35.8412C38.4498 35.947 38.3957 36.0634 38.2983 36.1585L33.8429 41.6392C33.5076 42.0625 32.9345 41.7768 33.1292 41.269L34.6107 37.3965H31.8422C31.6368 37.3965 31.4637 37.2484 31.4637 37.0473ZM25.6457 44.7288H44.3543C46.6254 44.7288 47.75 43.639 47.75 41.4594V31.228C47.75 29.0484 46.6254 27.9586 44.3543 27.9586H42.8619V26.5408C42.8619 25.7367 42.3861 25.25 41.5535 25.25H38.3632C37.5413 25.25 37.0655 25.7367 37.0655 26.5408V27.9586H32.9453V26.5408C32.9453 25.7367 32.4695 25.25 31.6368 25.25H28.4466C27.6139 25.25 27.1489 25.7367 27.1489 26.5408V27.9586H25.6457C23.3855 27.9586 22.25 29.0484 22.25 31.228V41.4594C22.25 43.639 23.3855 44.7288 25.6457 44.7288Z" fill="#9EFF00"/>
<defs>
<linearGradient id="paint0_linear_92_36159" x1="35" y1="0" x2="35" y2="70" gradientUnits="userSpaceOnUse">
<stop stop-color="#242424"/>
<stop offset="1" stop-color="#242424" stop-opacity="0"/>
</linearGradient>
<linearGradient id="paint1_linear_92_36159" x1="162.273" y1="-69.6023" x2="6.57852e-06" y2="70" gradientUnits="userSpaceOnUse">
<stop offset="0.224072" stop-color="#9EFF00"/>
<stop offset="0.687143" stop-color="#9EFF00" stop-opacity="0"/>
</linearGradient>
<linearGradient id="paint2_linear_92_36159" x1="35" y1="0" x2="35" y2="70" gradientUnits="userSpaceOnUse">
<stop stop-color="#2E2E2E"/>
<stop offset="1" stop-color="#2E2E2E" stop-opacity="0"/>
</linearGradient>
</defs>
</svg>
