<svg width="64" height="64" viewBox="0 0 64 64" fill="none" xmlns="http://www.w3.org/2000/svg">
<rect x="0.5" y="0.5" width="63" height="63" rx="7.5" fill="url(#paint0_linear_92_53625)"/>
<rect x="0.5" y="0.5" width="63" height="63" rx="7.5" fill="url(#paint1_linear_92_53625)" fill-opacity="0.2"/>
<rect x="0.5" y="0.5" width="63" height="63" rx="7.5" stroke="url(#paint2_linear_92_53625)"/>
<path fill-rule="evenodd" clip-rule="evenodd" d="M27.5 25.25C27.5 23.5931 28.8431 22.25 30.5 22.25H33.5C35.1569 22.25 36.5 23.5931 36.5 25.25V25.455C37.4325 25.5403 38.3574 25.652 39.274 25.7891C40.7281 26.0067 41.75 27.2716 41.75 28.7057V31.7389C41.75 32.95 41.0164 34.0913 39.8137 34.4911C37.3566 35.308 34.7292 35.75 32 35.75C29.2709 35.75 26.6434 35.308 24.1863 34.4911C22.9836 34.0912 22.25 32.95 22.25 31.7389V28.7057C22.25 27.2716 23.2719 26.0067 24.726 25.7891C25.6426 25.652 26.5675 25.5403 27.5 25.455V25.25ZM35 25.25V25.3408C34.0077 25.2806 33.0074 25.25 32 25.25C30.9927 25.25 29.9924 25.2806 29 25.3408V25.25C29 24.4216 29.6716 23.75 30.5 23.75H33.5C34.3284 23.75 35 24.4216 35 25.25ZM32 33.5C32.4142 33.5 32.75 33.1642 32.75 32.75C32.75 32.3358 32.4142 32 32 32C31.5858 32 31.25 32.3358 31.25 32.75C31.25 33.1642 31.5858 33.5 32 33.5Z" fill="#9EFF00"/>
<path d="M23 38.4V35.6039C23.223 35.7263 23.461 35.8307 23.713 35.9145C26.3209 36.7815 29.108 37.25 32 37.25C34.892 37.25 37.6791 36.7815 40.287 35.9145C40.539 35.8307 40.777 35.7263 41 35.604V38.4C41 39.8519 39.9528 41.1275 38.4769 41.3234C36.3575 41.6048 34.1955 41.75 32 41.75C29.8045 41.75 27.6425 41.6048 25.5231 41.3234C24.0472 41.1275 23 39.8519 23 38.4Z" fill="#9EFF00"/>
<defs>
<linearGradient id="paint0_linear_92_53625" x1="32" y1="0" x2="32" y2="64" gradientUnits="userSpaceOnUse">
<stop stop-color="#242424"/>
<stop offset="1" stop-color="#242424" stop-opacity="0"/>
</linearGradient>
<linearGradient id="paint1_linear_92_53625" x1="148.364" y1="-63.6364" x2="6.01465e-06" y2="64" gradientUnits="userSpaceOnUse">
<stop offset="0.224072" stop-color="#9EFF00"/>
<stop offset="0.687143" stop-color="#9EFF00" stop-opacity="0"/>
</linearGradient>
<linearGradient id="paint2_linear_92_53625" x1="32" y1="0" x2="32" y2="64" gradientUnits="userSpaceOnUse">
<stop stop-color="#2E2E2E"/>
<stop offset="1" stop-color="#2E2E2E" stop-opacity="0"/>
</linearGradient>
</defs>
</svg>
