<svg width="64" height="64" viewBox="0 0 64 64" fill="none" xmlns="http://www.w3.org/2000/svg">
<rect x="0.5" y="0.5" width="63" height="63" rx="7.5" fill="url(#paint0_linear_92_53598)"/>
<rect x="0.5" y="0.5" width="63" height="63" rx="7.5" fill="url(#paint1_linear_92_53598)" fill-opacity="0.2"/>
<rect x="0.5" y="0.5" width="63" height="63" rx="7.5" stroke="url(#paint2_linear_92_53598)"/>
<path d="M23.9368 22.6635C23.5853 22.312 23.0155 22.312 22.664 22.6635C22.3125 23.015 22.3125 23.5848 22.664 23.9363L26.5276 27.7999H23.3004C22.8033 27.7999 22.4004 28.2028 22.4004 28.6999C22.4004 29.197 22.8033 29.5999 23.3004 29.5999H28.7004C29.1974 29.5999 29.6004 29.197 29.6004 28.6999V23.2999C29.6004 22.8028 29.1974 22.3999 28.7004 22.3999C28.2033 22.3999 27.8004 22.8028 27.8004 23.2999V26.5271L23.9368 22.6635Z" fill="#9EFF00"/>
<path d="M36.2004 23.2999C36.2004 22.8028 35.7974 22.3999 35.3004 22.3999C34.8033 22.3999 34.4004 22.8028 34.4004 23.2999V28.6999C34.4004 29.197 34.8033 29.5999 35.3004 29.5999H40.7004C41.1974 29.5999 41.6004 29.197 41.6004 28.6999C41.6004 28.2028 41.1974 27.7999 40.7004 27.7999H37.4732L41.3368 23.9363C41.6883 23.5848 41.6883 23.015 41.3368 22.6635C40.9853 22.312 40.4155 22.312 40.064 22.6635L36.2004 26.5271V23.2999Z" fill="#9EFF00"/>
<path d="M23.9368 41.3363L27.8004 37.4727V40.6999C27.8004 41.197 28.2033 41.5999 28.7004 41.5999C29.1974 41.5999 29.6004 41.197 29.6004 40.6999V35.2999C29.6004 34.8028 29.1974 34.3999 28.7004 34.3999H23.3004C22.8033 34.3999 22.4004 34.8028 22.4004 35.2999C22.4004 35.797 22.8033 36.1999 23.3004 36.1999H26.5276L22.664 40.0635C22.3125 40.415 22.3125 40.9848 22.664 41.3363C23.0155 41.6878 23.5853 41.6878 23.9368 41.3363Z" fill="#9EFF00"/>
<path d="M36.2004 37.4727L40.064 41.3363C40.4155 41.6878 40.9853 41.6878 41.3368 41.3363C41.6883 40.9848 41.6883 40.415 41.3368 40.0635L37.4732 36.1999H40.7004C41.1974 36.1999 41.6004 35.797 41.6004 35.2999C41.6004 34.8028 41.1974 34.3999 40.7004 34.3999H35.3004C34.8033 34.3999 34.4004 34.8028 34.4004 35.2999V40.6999C34.4004 41.197 34.8033 41.5999 35.3004 41.5999C35.7974 41.5999 36.2004 41.197 36.2004 40.6999V37.4727Z" fill="#9EFF00"/>
<defs>
<linearGradient id="paint0_linear_92_53598" x1="32" y1="0" x2="32" y2="64" gradientUnits="userSpaceOnUse">
<stop stop-color="#242424"/>
<stop offset="1" stop-color="#242424" stop-opacity="0"/>
</linearGradient>
<linearGradient id="paint1_linear_92_53598" x1="148.364" y1="-63.6364" x2="6.01465e-06" y2="64" gradientUnits="userSpaceOnUse">
<stop offset="0.224072" stop-color="#9EFF00"/>
<stop offset="0.687143" stop-color="#9EFF00" stop-opacity="0"/>
</linearGradient>
<linearGradient id="paint2_linear_92_53598" x1="32" y1="0" x2="32" y2="64" gradientUnits="userSpaceOnUse">
<stop stop-color="#2E2E2E"/>
<stop offset="1" stop-color="#2E2E2E" stop-opacity="0"/>
</linearGradient>
</defs>
</svg>
