<svg width="64" height="64" viewBox="0 0 64 64" fill="none" xmlns="http://www.w3.org/2000/svg">
<rect x="0.5" y="0.5" width="63" height="63" rx="7.5" fill="url(#paint0_linear_92_53393)"/>
<rect x="0.5" y="0.5" width="63" height="63" rx="7.5" fill="url(#paint1_linear_92_53393)" fill-opacity="0.2"/>
<rect x="0.5" y="0.5" width="63" height="63" rx="7.5" stroke="url(#paint2_linear_92_53393)"/>
<g clip-path="url(#clip0_92_53393)">
<path d="M22.6783 33.9621H28.7422C30.1619 33.9621 30.9891 33.1535 30.9891 31.7527V25.6888C30.9891 24.288 30.1619 23.4795 28.7422 23.4795H22.6783C21.2681 23.4795 20.4502 24.2786 20.4502 25.6888V31.7527C20.4502 33.1629 21.2681 33.9621 22.6783 33.9621ZM34.9001 34.0842H41.0863C42.5529 34.0842 43.3896 33.257 43.3896 31.8279V25.623C43.3896 24.1846 42.5529 23.3573 41.0863 23.3573H34.9001C33.4429 23.3573 32.6062 24.1846 32.6062 25.623V31.8279C32.6062 33.257 33.4429 34.0842 34.9001 34.0842ZM34.919 32.5988C34.3643 32.5988 34.0916 32.3262 34.0916 31.7621V25.6794C34.0916 25.1153 34.3643 24.8427 34.919 24.8427H41.0674C41.641 24.8427 41.9042 25.1153 41.9042 25.6794V31.7621C41.9042 32.3262 41.641 32.5988 41.0674 32.5988H34.919ZM21.1647 37.4782C20.7792 37.4782 20.4502 37.8166 20.4502 38.2397C20.4502 38.6627 20.7792 38.9918 21.1647 38.9918H24.2014V37.4782H21.1647ZM25.8372 40.496C27.0782 40.496 28.0935 39.4807 28.0935 38.2397C28.0935 36.9893 27.0782 35.9739 25.8372 35.9739C24.5962 35.9739 23.5809 36.9893 23.5809 38.2397C23.5809 39.4807 24.5962 40.496 25.8372 40.496ZM25.8372 39.3396C25.2167 39.3396 24.7372 38.8507 24.7372 38.2303C24.7372 37.6097 25.2167 37.1303 25.8372 37.1303C26.4483 37.1303 26.9372 37.6097 26.9372 38.2303C26.9372 38.8507 26.4483 39.3396 25.8372 39.3396ZM27.332 37.4782V38.9918H42.6281C43.0512 38.9918 43.3896 38.6627 43.3896 38.2397C43.3896 37.8166 43.0512 37.4782 42.6281 37.4782H27.332Z" fill="#9EFF00"/>
</g>
<defs>
<linearGradient id="paint0_linear_92_53393" x1="32" y1="0" x2="32" y2="64" gradientUnits="userSpaceOnUse">
<stop stop-color="#242424"/>
<stop offset="1" stop-color="#242424" stop-opacity="0"/>
</linearGradient>
<linearGradient id="paint1_linear_92_53393" x1="148.364" y1="-63.6364" x2="6.01465e-06" y2="64" gradientUnits="userSpaceOnUse">
<stop offset="0.224072" stop-color="#9EFF00"/>
<stop offset="0.687143" stop-color="#9EFF00" stop-opacity="0"/>
</linearGradient>
<linearGradient id="paint2_linear_92_53393" x1="32" y1="0" x2="32" y2="64" gradientUnits="userSpaceOnUse">
<stop stop-color="#2E2E2E"/>
<stop offset="1" stop-color="#2E2E2E" stop-opacity="0"/>
</linearGradient>
<clipPath id="clip0_92_53393">
<rect width="22.9394" height="17.496" fill="white" transform="translate(20.4502 23)"/>
</clipPath>
</defs>
</svg>
