<svg width="64" height="64" viewBox="0 0 64 64" fill="none" xmlns="http://www.w3.org/2000/svg">
<rect x="0.5" y="0.5" width="63" height="63" rx="7.5" fill="url(#paint0_linear_92_53619)"/>
<rect x="0.5" y="0.5" width="63" height="63" rx="7.5" fill="url(#paint1_linear_92_53619)" fill-opacity="0.2"/>
<rect x="0.5" y="0.5" width="63" height="63" rx="7.5" stroke="url(#paint2_linear_92_53619)"/>
<path d="M41 26.375C41 29.0674 36.9706 31.25 32 31.25C27.0294 31.25 23 29.0674 23 26.375C23 23.6826 27.0294 21.5 32 21.5C36.9706 21.5 41 23.6826 41 26.375Z" fill="#9EFF00"/>
<path d="M32 32.75C34.6852 32.75 37.1905 32.1637 39.0784 31.1411C39.7684 30.7673 40.4248 30.3043 40.9747 29.7567C40.9915 29.8783 41 30.0011 41 30.125C41 32.8174 36.9706 35 32 35C27.0294 35 23 32.8174 23 30.125C23 30.0011 23.0085 29.8783 23.0253 29.7567C23.5752 30.3043 24.2316 30.7673 24.9216 31.1411C26.8095 32.1637 29.3148 32.75 32 32.75Z" fill="#9EFF00"/>
<path d="M32 36.5C34.6852 36.5 37.1905 35.9137 39.0784 34.8911C39.7684 34.5173 40.4248 34.0543 40.9747 33.5067C40.9915 33.6283 41 33.7511 41 33.875C41 36.5674 36.9706 38.75 32 38.75C27.0294 38.75 23 36.5674 23 33.875C23 33.7511 23.0085 33.6283 23.0253 33.5067C23.5752 34.0543 24.2316 34.5173 24.9216 34.8911C26.8095 35.9137 29.3148 36.5 32 36.5Z" fill="#9EFF00"/>
<path d="M32 40.25C34.6852 40.25 37.1905 39.6637 39.0784 38.6411C39.7684 38.2673 40.4248 37.8043 40.9747 37.2567C40.9915 37.3783 41 37.5011 41 37.625C41 40.3174 36.9706 42.5 32 42.5C27.0294 42.5 23 40.3174 23 37.625C23 37.5011 23.0085 37.3783 23.0253 37.2567C23.5752 37.8043 24.2316 38.2673 24.9216 38.6411C26.8095 39.6637 29.3148 40.25 32 40.25Z" fill="#9EFF00"/>
<defs>
<linearGradient id="paint0_linear_92_53619" x1="32" y1="0" x2="32" y2="64" gradientUnits="userSpaceOnUse">
<stop stop-color="#242424"/>
<stop offset="1" stop-color="#242424" stop-opacity="0"/>
</linearGradient>
<linearGradient id="paint1_linear_92_53619" x1="148.364" y1="-63.6364" x2="6.01465e-06" y2="64" gradientUnits="userSpaceOnUse">
<stop offset="0.224072" stop-color="#9EFF00"/>
<stop offset="0.687143" stop-color="#9EFF00" stop-opacity="0"/>
</linearGradient>
<linearGradient id="paint2_linear_92_53619" x1="32" y1="0" x2="32" y2="64" gradientUnits="userSpaceOnUse">
<stop stop-color="#2E2E2E"/>
<stop offset="1" stop-color="#2E2E2E" stop-opacity="0"/>
</linearGradient>
</defs>
</svg>
