<svg width="52" height="52" viewBox="0 0 52 52" fill="none" xmlns="http://www.w3.org/2000/svg">
<rect x="0.5" y="0.5" width="51" height="51" rx="5.5" fill="url(#paint0_linear_92_41961)"/>
<rect x="0.5" y="0.5" width="51" height="51" rx="5.5" stroke="url(#paint1_linear_92_41961)"/>
<path d="M22.2918 34.1251C29.8371 34.1251 33.9652 27.8724 33.9652 22.4517C33.9652 22.2759 33.9613 22.0962 33.9535 21.9204C34.7566 21.3397 35.4496 20.6203 36 19.7962C35.2521 20.129 34.458 20.3463 33.6449 20.4407C34.5011 19.9275 35.1421 19.1213 35.4492 18.1716C34.6438 18.6489 33.763 18.9856 32.8445 19.1673C32.2257 18.5098 31.4075 18.0744 30.5164 17.9285C29.6253 17.7826 28.711 17.9343 27.9148 18.3602C27.1186 18.7861 26.4848 19.4624 26.1115 20.2845C25.7382 21.1067 25.6462 22.029 25.8496 22.9087C24.2187 22.8269 22.6233 22.4032 21.1667 21.6652C19.71 20.9272 18.4247 19.8913 17.3941 18.6247C16.8703 19.5278 16.71 20.5965 16.9459 21.6135C17.1817 22.6306 17.7959 23.5197 18.6637 24.1001C18.0122 24.0794 17.375 23.904 16.8047 23.5884V23.6392C16.8041 24.5869 17.1317 25.5056 17.7319 26.2391C18.3321 26.9726 19.1678 27.4756 20.0969 27.6626C19.4934 27.8277 18.86 27.8518 18.2457 27.7329C18.5079 28.548 19.018 29.2609 19.7048 29.7721C20.3916 30.2833 21.2209 30.5673 22.077 30.5845C20.6237 31.726 18.8285 32.3452 16.9805 32.3423C16.6527 32.3418 16.3253 32.3217 16 32.2821C17.8774 33.4866 20.0613 34.1263 22.2918 34.1251Z" fill="#9EFF00"/>
<defs>
<linearGradient id="paint0_linear_92_41961" x1="26" y1="0" x2="26" y2="52" gradientUnits="userSpaceOnUse">
<stop stop-color="#242424"/>
<stop offset="1" stop-color="#242424" stop-opacity="0"/>
</linearGradient>
<linearGradient id="paint1_linear_92_41961" x1="26" y1="0" x2="26" y2="52" gradientUnits="userSpaceOnUse">
<stop stop-color="#2E2E2E"/>
<stop offset="1" stop-color="#2E2E2E" stop-opacity="0"/>
</linearGradient>
</defs>
</svg>
