<svg width="74" height="74" viewBox="0 0 74 74" fill="none" xmlns="http://www.w3.org/2000/svg">
<rect x="0.5" y="0.5" width="73" height="73" rx="7.5" fill="url(#paint0_linear_100_2950)"/>
<rect x="0.5" y="0.5" width="73" height="73" rx="7.5" fill="url(#paint1_linear_100_2950)" fill-opacity="0.2"/>
<rect x="0.5" y="0.5" width="73" height="73" rx="7.5" stroke="url(#paint2_linear_100_2950)"/>
<path d="M38.4582 25.5403C39.1069 25.5403 39.6003 25.0468 39.6003 24.3981C39.6003 23.7636 39.1069 23.27 38.4582 23.27H28.1363L30.3784 25.5403H38.4582ZM42.4206 29.5731C43.0551 29.5731 43.5627 29.0655 43.5627 28.4169C43.5627 27.7823 43.0551 27.3029 42.4206 27.3029H32.0705L34.3125 29.5731H42.4206ZM46.2983 33.5919C46.9329 33.5919 47.4265 33.0843 47.4265 32.4356C47.4265 31.8011 46.9329 31.3217 46.2983 31.3217H36.0047L38.2467 33.5919H46.2983ZM50.2184 35.3405H39.9388C40.7849 36.2006 41.1656 36.7223 41.222 37.6107H50.2184C50.8529 37.6107 51.3606 37.1171 51.3606 36.4685C51.3606 35.8339 50.8529 35.3405 50.2184 35.3405ZM37.175 49.2722L32.1128 37.4415L31.436 38.5978L38.4582 38.9925C39.403 39.049 39.8542 38.0337 39.1774 37.3427L25.2175 23.0726C24.597 22.4381 23.6382 22.7906 23.6382 23.679L23.3984 43.5331C23.3984 44.506 24.4842 44.9009 25.1047 44.1817L29.6451 39.1617L28.3338 38.8234L33.2268 50.922C33.4242 51.4014 33.9177 51.627 34.3549 51.4296L36.7802 50.4284C37.2314 50.2592 37.3865 49.7375 37.175 49.2722Z" fill="#9EFF00"/>
<defs>
<linearGradient id="paint0_linear_100_2950" x1="37" y1="0" x2="37" y2="74" gradientUnits="userSpaceOnUse">
<stop stop-color="#242424"/>
<stop offset="1" stop-color="#242424" stop-opacity="0"/>
</linearGradient>
<linearGradient id="paint1_linear_100_2950" x1="-95.4432" y1="-73.1591" x2="74" y2="74" gradientUnits="userSpaceOnUse">
<stop offset="0.19577" stop-color="#9EFF00"/>
<stop offset="0.708531" stop-color="#9EFF00" stop-opacity="0"/>
</linearGradient>
<linearGradient id="paint2_linear_100_2950" x1="37" y1="0" x2="37" y2="74" gradientUnits="userSpaceOnUse">
<stop stop-color="#2E2E2E"/>
<stop offset="1" stop-color="#2E2E2E" stop-opacity="0"/>
</linearGradient>
</defs>
</svg>
