<svg width="64" height="64" viewBox="0 0 64 64" fill="none" xmlns="http://www.w3.org/2000/svg">
<rect x="0.5" y="0.5" width="63" height="63" rx="7.5" fill="url(#paint0_linear_92_53451)"/>
<rect x="0.5" y="0.5" width="63" height="63" rx="7.5" fill="url(#paint1_linear_92_53451)" fill-opacity="0.2"/>
<rect x="0.5" y="0.5" width="63" height="63" rx="7.5" stroke="url(#paint2_linear_92_53451)"/>
<path d="M22.4004 33.0186V34.4402C22.4004 36.3053 23.342 37.2469 25.2434 37.2469H27.5341V35.7892H25.2615C24.3561 35.7892 23.8581 35.3003 23.8581 34.3587V33.0186H22.4004ZM23.8581 31.7783V27.6677H22.4004V31.7783H23.8581ZM23.8581 26.4363V25.3589C23.8581 24.4172 24.3561 23.9283 25.2615 23.9283H26.5743V22.4706H25.2434C23.342 22.4706 22.4004 23.4122 22.4004 25.2774V26.4363H23.8581ZM31.9163 22.4706H27.8057V23.9283H31.9163V22.4706ZM33.1477 23.9283H34.3066C35.2029 23.9283 35.71 24.4172 35.71 25.3589V27.3417H37.1677V25.2774C37.1677 23.4122 36.217 22.4706 34.3337 22.4706H33.1477V23.9283ZM41.5589 36.4773V29.4695C41.5589 27.6043 40.6082 26.6627 38.725 26.6627H29.6346C27.7333 26.6627 26.7916 27.5952 26.7916 29.4695V38.6322C26.7916 40.4973 27.7333 41.439 29.6346 41.439H34.1979V39.9813H29.6527C28.7564 39.9813 28.2493 39.4923 28.2493 38.5507V29.551C28.2493 28.6093 28.7564 28.1204 29.6527 28.1204H38.6978C39.5942 28.1204 40.1012 28.6093 40.1012 29.551V35.0106L41.5589 36.4773ZM35.0128 39.8002C35.0037 40.1533 35.4202 40.2619 35.6465 40.0447L37.0318 38.6594L38.5801 42.4802C38.6526 42.6523 38.8336 42.7338 38.9966 42.6703L39.902 42.3082C40.056 42.2357 40.1283 42.0456 40.0378 41.8736L38.4172 38.1071L40.3728 38.0346C40.7078 38.0165 40.8799 37.6815 40.6354 37.428L35.6828 32.3396C35.4564 32.1042 35.1033 32.24 35.0943 32.575L35.0128 39.8002Z" fill="#9EFF00"/>
<defs>
<linearGradient id="paint0_linear_92_53451" x1="32" y1="0" x2="32" y2="64" gradientUnits="userSpaceOnUse">
<stop stop-color="#242424"/>
<stop offset="1" stop-color="#242424" stop-opacity="0"/>
</linearGradient>
<linearGradient id="paint1_linear_92_53451" x1="148.364" y1="-63.6364" x2="6.01465e-06" y2="64" gradientUnits="userSpaceOnUse">
<stop offset="0.224072" stop-color="#9EFF00"/>
<stop offset="0.687143" stop-color="#9EFF00" stop-opacity="0"/>
</linearGradient>
<linearGradient id="paint2_linear_92_53451" x1="32" y1="0" x2="32" y2="64" gradientUnits="userSpaceOnUse">
<stop stop-color="#2E2E2E"/>
<stop offset="1" stop-color="#2E2E2E" stop-opacity="0"/>
</linearGradient>
</defs>
</svg>
