<svg width="74" height="74" viewBox="0 0 74 74" fill="none" xmlns="http://www.w3.org/2000/svg">
<rect x="0.5" y="0.5" width="73" height="73" rx="7.5" fill="url(#paint0_linear_100_2919)"/>
<rect x="0.5" y="0.5" width="73" height="73" rx="7.5" fill="url(#paint1_linear_100_2919)" fill-opacity="0.2"/>
<rect x="0.5" y="0.5" width="73" height="73" rx="7.5" stroke="url(#paint2_linear_100_2919)"/>
<path d="M32.2207 47.9205H44.4799C46.8555 47.9205 48.0433 46.7211 48.0433 44.2992V30.3103C48.0433 27.9 46.8555 26.6891 44.4799 26.6891H33.4431L35.3345 28.5458H44.376C45.5754 28.5458 46.1866 29.1801 46.1866 30.3334V44.2762C46.1866 45.4295 45.5754 46.0638 44.3876 46.0638H32.313C31.1251 46.0638 30.5023 45.4295 30.5023 44.2762V36.042H28.6456V44.2992C28.6456 46.7211 29.845 47.9205 32.2207 47.9205ZM33.9736 33.4933H42.4616C42.8652 33.4933 43.1766 33.1819 43.1766 32.7783C43.1766 32.3862 42.8652 32.0748 42.4616 32.0748H33.9736C33.5469 32.0748 33.2471 32.3862 33.2471 32.7783C33.2471 33.1819 33.5469 33.4933 33.9736 33.4933ZM33.9736 38.014H42.4616C42.8652 38.014 43.1766 37.6911 43.1766 37.2875C43.1766 36.8954 42.8652 36.5955 42.4616 36.5955H33.9736C33.5469 36.5955 33.2471 36.8954 33.2471 37.2875C33.2471 37.6911 33.5469 38.014 33.9736 38.014ZM33.9736 42.5232H42.4616C42.8652 42.5232 43.1766 42.2235 43.1766 41.8313C43.1766 41.4277 42.8652 41.1047 42.4616 41.1047H33.9736C33.5469 41.1047 33.2471 41.4277 33.2471 41.8313C33.2471 42.2235 33.5469 42.5232 33.9736 42.5232ZM25.3127 31.3598C25.3012 31.798 25.8317 31.948 26.12 31.6596L27.8844 29.8951L29.8565 34.7618C29.9488 34.981 30.1794 35.0848 30.387 35.004L31.5403 34.5428C31.7363 34.4505 31.817 34.2083 31.7133 33.9892L29.6489 29.2032L32.1284 29.0994C32.5667 29.0763 32.7858 28.6611 32.4744 28.3267L26.1661 21.8454C25.8778 21.5571 25.428 21.7185 25.4165 22.1452L25.3127 31.3598Z" fill="#9EFF00"/>
<defs>
<linearGradient id="paint0_linear_100_2919" x1="37" y1="0" x2="37" y2="74" gradientUnits="userSpaceOnUse">
<stop stop-color="#242424"/>
<stop offset="1" stop-color="#242424" stop-opacity="0"/>
</linearGradient>
<linearGradient id="paint1_linear_100_2919" x1="-95.4432" y1="-73.1591" x2="74" y2="74" gradientUnits="userSpaceOnUse">
<stop offset="0.19577" stop-color="#9EFF00"/>
<stop offset="0.708531" stop-color="#9EFF00" stop-opacity="0"/>
</linearGradient>
<linearGradient id="paint2_linear_100_2919" x1="37" y1="0" x2="37" y2="74" gradientUnits="userSpaceOnUse">
<stop stop-color="#2E2E2E"/>
<stop offset="1" stop-color="#2E2E2E" stop-opacity="0"/>
</linearGradient>
</defs>
</svg>
