<svg width="64" height="64" viewBox="0 0 64 64" fill="none" xmlns="http://www.w3.org/2000/svg">
<rect x="0.5" y="0.5" width="63" height="63" rx="7.5" fill="url(#paint0_linear_92_53366)"/>
<rect x="0.5" y="0.5" width="63" height="63" rx="7.5" fill="url(#paint1_linear_92_53366)" fill-opacity="0.2"/>
<rect x="0.5" y="0.5" width="63" height="63" rx="7.5" stroke="url(#paint2_linear_92_53366)"/>
<path d="M33.0308 23.9108C33.4887 23.9108 33.837 23.5624 33.837 23.1046C33.837 22.6567 33.4887 22.3083 33.0308 22.3083H25.7448L27.3274 23.9108H33.0308ZM35.8278 26.7575C36.2757 26.7575 36.634 26.3992 36.634 25.9413C36.634 25.4934 36.2757 25.155 35.8278 25.155H28.5218L30.1045 26.7575H35.8278ZM38.565 29.5943C39.0129 29.5943 39.3614 29.236 39.3614 28.7781C39.3614 28.3302 39.0129 27.9918 38.565 27.9918H31.2989L32.8815 29.5943H38.565ZM41.3322 30.8286H34.076C34.6732 31.4357 34.9419 31.804 34.9817 32.4311H41.3322C41.78 32.4311 42.1384 32.0827 42.1384 31.6249C42.1384 31.1769 41.78 30.8286 41.3322 30.8286ZM32.125 40.6627L28.5517 32.3117L28.0739 33.1278L33.0308 33.4065C33.6977 33.4463 34.0162 32.7296 33.5385 32.2419L23.6844 22.1689C23.2464 21.721 22.5696 21.9698 22.5696 22.5969L22.4004 36.6116C22.4004 37.2983 23.1668 37.5771 23.6048 37.0694L26.8098 33.5259L25.8841 33.2871L29.338 41.8273C29.4774 42.1657 29.8258 42.3249 30.1343 42.1856L31.8464 41.4789C32.1649 41.3594 32.2744 40.9912 32.125 40.6627Z" fill="#9EFF00"/>
<defs>
<linearGradient id="paint0_linear_92_53366" x1="32" y1="0" x2="32" y2="64" gradientUnits="userSpaceOnUse">
<stop stop-color="#242424"/>
<stop offset="1" stop-color="#242424" stop-opacity="0"/>
</linearGradient>
<linearGradient id="paint1_linear_92_53366" x1="148.364" y1="-63.6364" x2="6.01465e-06" y2="64" gradientUnits="userSpaceOnUse">
<stop offset="0.224072" stop-color="#9EFF00"/>
<stop offset="0.687143" stop-color="#9EFF00" stop-opacity="0"/>
</linearGradient>
<linearGradient id="paint2_linear_92_53366" x1="32" y1="0" x2="32" y2="64" gradientUnits="userSpaceOnUse">
<stop stop-color="#2E2E2E"/>
<stop offset="1" stop-color="#2E2E2E" stop-opacity="0"/>
</linearGradient>
</defs>
</svg>
