<svg width="64" height="64" viewBox="0 0 64 64" fill="none" xmlns="http://www.w3.org/2000/svg">
<rect x="0.5" y="0.5" width="63" height="63" rx="7.5" fill="url(#paint0_linear_92_53354)"/>
<rect x="0.5" y="0.5" width="63" height="63" rx="7.5" fill="url(#paint1_linear_92_53354)" fill-opacity="0.2"/>
<rect x="0.5" y="0.5" width="63" height="63" rx="7.5" stroke="url(#paint2_linear_92_53354)"/>
<path d="M21.0498 35.8725C21.0498 36.0541 21.1406 36.2688 21.2809 36.4091L24.9214 40.1403C25.0782 40.3055 25.2681 40.388 25.4745 40.388C25.6726 40.388 25.8624 40.3055 26.0193 40.1403L29.668 36.4091C29.8083 36.2688 29.8909 36.0541 29.8909 35.8725C29.8909 35.435 29.5937 35.1461 29.1644 35.1461C28.9498 35.1461 28.7847 35.2121 28.6609 35.3442L27.4639 36.6072L26.1266 38.1427L26.2092 36.2357V28.3523L26.1266 26.4454L27.4639 27.9808L28.6609 29.2438C28.7847 29.3759 28.9498 29.4419 29.1644 29.4419C29.5937 29.4419 29.8909 29.153 29.8909 28.7155C29.8909 28.5339 29.8083 28.3192 29.668 28.1789L26.0193 24.4477C25.8624 24.2826 25.6726 24.2 25.4745 24.2C25.2681 24.2 25.0782 24.2826 24.9214 24.4477L21.2809 28.1789C21.1406 28.3192 21.0498 28.5339 21.0498 28.7155C21.0498 29.153 21.347 29.4419 21.7762 29.4419C21.9909 29.4419 22.1642 29.3676 22.2798 29.2438L23.485 27.9808L24.8141 26.4454L24.7315 28.3523V36.2357L24.8141 38.1427L23.485 36.6072L22.2798 35.3442C22.1642 35.2204 21.9909 35.1461 21.7762 35.1461C21.347 35.1461 21.0498 35.435 21.0498 35.8725ZM31.5006 30.1106C31.5006 30.35 31.6822 30.5398 31.9381 30.5728C35.8262 31.0104 36.3958 31.5552 36.9158 35.5671C36.9571 35.8148 37.147 35.9799 37.3699 35.9799C37.601 35.9799 37.7908 35.8148 37.8321 35.5671C38.3522 31.5552 38.9136 31.0104 42.8016 30.5728C43.0658 30.5398 43.2391 30.35 43.2391 30.1106C43.2391 29.8712 43.0658 29.6813 42.8016 29.6483C38.9218 29.2108 38.3522 28.6577 37.8321 24.654C37.7908 24.4146 37.6092 24.2495 37.3699 24.2495C37.1387 24.2495 36.9571 24.4146 36.9158 24.654C36.3628 28.6329 35.8345 29.1282 31.9381 29.6483C31.6822 29.6813 31.5006 29.8712 31.5006 30.1106ZM30.7164 37.3007C30.7164 37.4657 30.8319 37.606 31.0135 37.6473C33.1185 38.0436 33.1598 38.0188 33.3992 40C33.4322 40.1899 33.5643 40.3302 33.7459 40.3302C33.9358 40.3302 34.0679 40.1981 34.1009 40.0083C34.365 37.9363 34.4558 37.9363 36.4701 37.6473C36.66 37.6143 36.7837 37.474 36.7837 37.3007C36.7837 37.1355 36.6682 36.9869 36.4783 36.9539C34.4311 36.5577 34.3733 36.6072 34.1009 34.5848C34.0679 34.4032 33.9275 34.2711 33.7459 34.2711C33.5643 34.2711 33.4322 34.4114 33.3992 34.6012C33.1598 36.5824 33.1103 36.6155 31.0466 36.9539C30.8402 36.9869 30.7164 37.119 30.7164 37.3007Z" fill="#9EFF00"/>
<defs>
<linearGradient id="paint0_linear_92_53354" x1="32" y1="0" x2="32" y2="64" gradientUnits="userSpaceOnUse">
<stop stop-color="#242424"/>
<stop offset="1" stop-color="#242424" stop-opacity="0"/>
</linearGradient>
<linearGradient id="paint1_linear_92_53354" x1="148.364" y1="-63.6364" x2="6.01465e-06" y2="64" gradientUnits="userSpaceOnUse">
<stop offset="0.224072" stop-color="#9EFF00"/>
<stop offset="0.687143" stop-color="#9EFF00" stop-opacity="0"/>
</linearGradient>
<linearGradient id="paint2_linear_92_53354" x1="32" y1="0" x2="32" y2="64" gradientUnits="userSpaceOnUse">
<stop stop-color="#2E2E2E"/>
<stop offset="1" stop-color="#2E2E2E" stop-opacity="0"/>
</linearGradient>
</defs>
</svg>
