<svg width="64" height="64" viewBox="0 0 64 64" fill="none" xmlns="http://www.w3.org/2000/svg">
<rect x="0.5" y="0.5" width="63" height="63" rx="7.5" fill="url(#paint0_linear_92_53405)"/>
<rect x="0.5" y="0.5" width="63" height="63" rx="7.5" fill="url(#paint1_linear_92_53405)" fill-opacity="0.2"/>
<rect x="0.5" y="0.5" width="63" height="63" rx="7.5" stroke="url(#paint2_linear_92_53405)"/>
<g clip-path="url(#clip0_92_53405)">
<path d="M23.4315 31.9598C23.4315 31.0458 23.5721 30.1618 23.8333 29.3482L22.2563 28.6853C21.9148 29.7199 21.7139 30.8148 21.7139 31.9598C21.7139 33.0948 21.9148 34.1998 22.2663 35.2344L23.8333 34.5714C23.5721 33.7578 23.4315 32.8739 23.4315 31.9598ZM28.052 24.346L27.4092 22.7991C25.4203 23.7935 23.7831 25.4308 22.7886 27.4197L24.3556 28.0726C25.1592 26.4755 26.465 25.1697 28.052 24.346ZM31.9494 23.4219C32.8634 23.4219 33.7474 23.5625 34.581 23.8337L35.2239 22.2667C34.1893 21.9152 33.0844 21.7143 31.9494 21.7143C30.8143 21.7143 29.6994 21.9152 28.6648 22.2667L29.3277 23.8337C30.1514 23.5625 31.0353 23.4219 31.9494 23.4219ZM39.5632 28.0625L41.1201 27.4197C40.1157 25.4308 38.4784 23.7935 36.4896 22.7891L35.8467 24.346C37.4337 25.1596 38.7496 26.4654 39.5632 28.0625ZM40.4974 31.9598C40.4974 32.8739 40.3567 33.7578 40.0956 34.5815L41.6525 35.2445C42.0041 34.2098 42.2049 33.0948 42.2049 31.9598C42.2049 30.8148 42.0041 29.7098 41.6525 28.6752L40.0855 29.3382C40.3567 30.1618 40.4974 31.0458 40.4974 31.9598ZM35.8467 39.5636L36.4896 41.1306C38.4884 40.1262 40.1257 38.4888 41.1101 36.5L39.5732 35.8572C38.7596 37.4543 37.4438 38.75 35.8467 39.5636ZM31.9594 40.4978C31.0353 40.4978 30.1514 40.3571 29.3277 40.086L28.6748 41.6529C29.7094 42.0045 30.8244 42.2053 31.9594 42.2053C33.0944 42.2053 34.1994 42.0045 35.2239 41.6629L34.571 40.096C33.7474 40.3571 32.8734 40.4978 31.9594 40.4978ZM24.3556 35.8572L22.7987 36.5C23.8032 38.4888 25.4203 40.1262 27.4092 41.1205L28.052 39.5536C26.465 38.74 25.1592 37.4442 24.3556 35.8572ZM31.9393 38.971C35.8467 38.971 38.9605 35.8572 38.9505 31.9598C38.9405 28.0625 35.8266 24.9487 31.9293 24.9487C28.0319 24.9487 24.9382 28.0525 24.9382 31.9598C24.9382 35.8672 28.042 38.971 31.9393 38.971Z" fill="#9EFF00"/>
</g>
<defs>
<linearGradient id="paint0_linear_92_53405" x1="32" y1="0" x2="32" y2="64" gradientUnits="userSpaceOnUse">
<stop stop-color="#242424"/>
<stop offset="1" stop-color="#242424" stop-opacity="0"/>
</linearGradient>
<linearGradient id="paint1_linear_92_53405" x1="148.364" y1="-63.6364" x2="6.01465e-06" y2="64" gradientUnits="userSpaceOnUse">
<stop offset="0.224072" stop-color="#9EFF00"/>
<stop offset="0.687143" stop-color="#9EFF00" stop-opacity="0"/>
</linearGradient>
<linearGradient id="paint2_linear_92_53405" x1="32" y1="0" x2="32" y2="64" gradientUnits="userSpaceOnUse">
<stop stop-color="#2E2E2E"/>
<stop offset="1" stop-color="#2E2E2E" stop-opacity="0"/>
</linearGradient>
<clipPath id="clip0_92_53405">
<rect width="20.491" height="20.5011" fill="white" transform="translate(21.7139 21.7143)"/>
</clipPath>
</defs>
</svg>
